<?xml version="1.0" encoding="utf-8"?>
<!-- Generator: Adobe Illustrator 18.0.0, SVG Export Plug-In . SVG Version: 6.00 Build 0)  -->
<!DOCTYPE svg PUBLIC "-//W3C//DTD SVG 1.1//EN" "http://www.w3.org/Graphics/SVG/1.1/DTD/svg11.dtd">
<svg version="1.1" id="Layer_1" xmlns="http://www.w3.org/2000/svg" xmlns:xlink="http://www.w3.org/1999/xlink" x="0px" y="0px"
	 viewBox="0 0 500 500" enable-background="new 0 0 500 500" xml:space="preserve">
<g>
	<g>
		<path d="M249.03195,388.564c-75.87096,0-137.59879-61.72784-137.59879-137.59595
			c0-75.87096,61.72784-137.59595,137.59879-137.59595c75.86813,0,137.59595,61.725,137.59595,137.59595
			C386.6279,326.83615,324.90009,388.564,249.03195,388.564z M249.03195,142.44186
			c-59.84283,0-108.52902,48.68333-108.52902,108.52618c0,59.84,48.68619,108.52618,108.52902,108.52618
			c59.84,0,108.52618-48.68619,108.52618-108.52618C357.55814,191.1252,308.87195,142.44186,249.03195,142.44186z"/>
	</g>
	<g>
		<rect x="232.55814" width="29.06977" height="87.2093"/>
	</g>
	<g>
		
			<rect x="336.49973" y="26.81325" transform="matrix(0.86602 0.5 -0.5 0.86602 82.23963 -166.0844)" width="29.06952" height="87.20856"/>
	</g>
	<g>
		
			<rect x="413.10876" y="102.0029" transform="matrix(0.5 0.86602 -0.86602 0.5 339.91913 -297.54614)" width="29.06952" height="87.20856"/>
	</g>
	<g>
		<rect x="412.79071" y="232.55814" width="87.2093" height="29.06977"/>
	</g>
	<g>
		
			<rect x="386.94623" y="336.76089" transform="matrix(0.86602 0.5 -0.5 0.86602 233.33321 -168.21153)" width="87.20856" height="29.06952"/>
	</g>
	<g>
		
			<rect x="312.46631" y="414.07965" transform="matrix(0.5 0.86602 -0.86602 0.5 549.22369 -94.05991)" width="87.20856" height="29.06952"/>
	</g>
	<g>
		<rect x="238.3721" y="412.79071" width="29.06977" height="87.2093"/>
	</g>
	<g>
		
			<rect x="135.14047" y="387.2074" transform="matrix(0.86602 0.5 -0.5 0.86602 235.46071 -17.11938)" width="29.06952" height="87.20856"/>
	</g>
	<g>
		
			<rect x="58.53" y="313.43597" transform="matrix(0.5 0.86602 -0.86602 0.5 345.73819 115.24348)" width="29.06952" height="87.21102"/>
	</g>
	<g>
		<rect y="238.3721" width="87.2093" height="29.06977"/>
	</g>
	<g>
		
			<rect x="26.55227" y="135.39882" transform="matrix(0.86603 0.49999 -0.49999 0.86603 84.36427 -14.99176)" width="87.21102" height="29.06952"/>
	</g>
	<g>
		
			<rect x="101.03485" y="59.49947" transform="matrix(0.5 0.86602 -0.86602 0.5 136.4343 -88.24401)" width="87.20856" height="29.06952"/>
	</g>
</g>
<g>
	<g>
		<path d="M603.20844,367.84979l-39.42059-20.72464l-39.42627,20.72464l7.52948-43.90421L500,292.85577l44.07471-6.40436
			l19.71313-39.94341l19.71313,39.94341l44.08038,6.40436l-31.90247,31.09549L603.20844,367.84979z M525.00372,300.98196
			l19.38922,18.90619l-4.57458,26.68576l23.96948-12.59845l23.96375,12.59845l-4.57452-26.69144l19.38922-18.90051l-26.7937-3.89261
			l-11.98474-24.28201l-11.98474,24.28201L525.00372,300.98196z"/>
	</g>
</g>
</svg>
