<?xml version="1.0" encoding="utf-8"?>
<!-- Generator: Adobe Illustrator 18.0.0, SVG Export Plug-In . SVG Version: 6.00 Build 0)  -->
<!DOCTYPE svg PUBLIC "-//W3C//DTD SVG 1.1//EN" "http://www.w3.org/Graphics/SVG/1.1/DTD/svg11.dtd">
<svg version="1.1" id="Layer_1" xmlns="http://www.w3.org/2000/svg" xmlns:xlink="http://www.w3.org/1999/xlink" x="0px" y="0px"
	 viewBox="0 0 500 500" enable-background="new 0 0 500 500" xml:space="preserve">
<g>
	<g>
		<path d="M305.40817,393.68097c-23.97934,0-42.87936-15.81866-43.02237-36.01453c-0.026-3.68378,0.60672-7.32425,1.85489-10.80435
			c-12.83694-7.66226-20.23486-18.42328-20.3172-30.20276c-0.09102-12.5899,7.86165-23.94467,22.38879-31.97534
			c12.3992-6.85617,28.67291-10.69598,45.83505-10.81735l0.85379-0.00433c15.23788,0,29.53534,2.88205,41.17615,8.20837
			c12.29953-9.26584,30.93085-14.88254,50.93604-15.02554l0.80609-0.00433c36.47388,0,64.34503,16.9411,66.01358,39.7243
			c17.41785,7.67963,27.95782,21.06262,28.06616,36.33521c0.17337,24.29135-26.47562,43.51642-60.66556,43.76346h-0.63275
			c-11.1944,0-22.09409-2.13226-31.48126-6.09775c-10.26263,7.80963-24.70743,12.36453-40.30072,12.4772h-0.59808
			c-12.19983,0-23.91431-2.79535-33.39249-7.83997c-7.56696,5.20932-17.16647,8.20401-27.13873,8.27771H305.40817z
			 M313.00113,296.05176l-0.69775,0.00433c-13.32666,0.09534-26.17661,3.02939-35.25607,8.048
			c-6.87787,3.80081-10.96472,8.43372-10.93439,12.3949c0.03467,5.20496,7.18124,11.30707,17.77756,15.18588l16.04401,5.87674
			l-11.89215,12.26486c-1.59485,1.64688-3.4931,4.31219-3.4671,7.67963c0.052,7.58429,9.59521,13.98541,20.83295,13.98541v11.09473
			l0.22104-11.09473c7.34592-0.052,14.05908-2.74768,17.9509-7.20724l6.97321-7.9873l8.29504,6.60046
			c6.42279,5.10965,16.68976,8.15637,27.47241,8.15637c13.06232-0.091,24.93713-4.37723,30.70117-10.92569l6.05011-6.87354
			l7.8963,4.6329c7.45428,4.37723,17.30518,6.78687,27.73248,6.78687h0.47238c22.85687-0.1647,38.70584-11.41977,38.63651-21.41803
			c-0.052-7.30258-8.44238-14.69183-20.87628-18.39297l-10.72635-3.19406l3.2851-10.70032
			c0.22534-0.73676,0.33371-1.42151,0.32938-2.08893c-0.05634-8.009-17.18817-19.64981-43.90216-19.64981l-0.65009,0.00433
			c-20.12653,0.14304-35.18674,6.96887-41.18481,13.66907l-6.20612,6.93417l-7.9093-4.91028
			C340.88095,299.28915,327.40692,296.05176,313.00113,296.05176z"/>
	</g>
	<g>
		<path d="M365.62735,262.67224c-20.92825,0-40.95511-7.14655-55.36957-19.45042
			c-11.68848,6.48347-25.35751,9.98958-39.37326,9.98958c-40.02333,0-72.58374-27.96216-72.58374-62.33412
			c0-35.86281,35.63745-64.83043,77.81473-62.16943c10.60931-23.45493,42.75803-39.58128,81.48117-39.58128
			c47.77664,0,85.19968,24.78543,85.19968,56.42273c0,8.56374-2.77368,16.85443-8.09137,24.36937
			c5.31769,8.84544,8.09137,18.59666,8.09137,28.64258C442.79636,233.91266,408.17734,262.67224,365.62735,262.67224z
			 M313.28284,214.14586l6.73917,7.64494c10.32327,11.70146,27.37274,18.692,45.60535,18.692
			c30.31546,0,54.97955-18.80467,54.97955-41.92157c0-7.82698-2.92102-15.49794-8.45105-22.1851l-6.45749-7.80965l7.19424-7.13788
			c5.11832-5.07498,7.71429-10.41864,7.71429-15.87932c0-16.19136-25.87756-34.23328-63.01022-34.23328
			c-35.47708,0-60.19751,16.2737-62.75449,31.35125l-1.87225,11.04704l-11.02536-1.98058
			c-3.69681-0.66309-7.41528-1.00113-11.06006-1.00113c-27.7888,0-50.3943,18.00725-50.3943,40.14468
			s22.6055,40.14468,50.3943,40.14468c12.65924,0,24.8071-3.83981,34.21161-10.80869L313.28284,214.14586z"/>
	</g>
	<g>
		<path d="M153.68788,410.87344c-15.12523,0-29.71738-4.6936-41.34518-13.10999
			c-12.20853,8.32104-28.57323,13.10999-45.65737,13.10999C29.29266,410.87344,0,389.37741,0,361.93967
			c0-22.41483,20.20886-41.21948,48.27503-47.03122c-0.87978-3.4541-1.3305-6.97754-1.3305-10.51398
			c0-30.02509,31.85398-54.45081,71.00621-54.45081c7.03387,0,14.04175,0.81042,20.8806,2.41397
			c8.4684-1.60355,17.34418-2.41397,26.41931-2.41397c44.0755,0,77.312,18.32361,77.312,42.62366
			c0,14.13708-10.81302,26.29361-29.63071,34.03824c4.25153,7.88766,6.50948,16.58142,6.50948,25.47885
			C219.44142,384.5018,189.94507,410.87344,153.68788,410.87344z M112.5464,367.70804l7.80097,7.81833
			c8.34704,8.36005,20.4949,13.15762,33.34051,13.15762c24.02266,0,43.5641-16.41672,43.5641-36.59958
			c0-10.93436-5.58203-18.80466-10.26695-23.48526l-14.05042-14.03741l19.31609-4.60257
			c19.39842-4.62424,28.12251-12.95395,28.12251-17.39185c0-8.13467-21.98575-20.43423-55.12256-20.43423
			c-8.45973,0-16.67242,0.82346-24.41272,2.44864l-2.57866,0.54175l-2.54831-0.67609
			c-5.78574-1.53418-11.76215-2.3143-17.76022-2.3143c-26.46265,0-48.81677,14.7742-48.81677,32.26138
			c0,4.5679,1.54286,9.06213,4.58958,13.35266l12.07851,17.00613l-20.85461,0.50705
			c-23.17756,0.56342-42.75801,12.78061-42.75801,26.67935c0,14.4968,20.37788,26.74432,44.4959,26.74432
			c15.43293,0,29.64371-4.94061,38.00809-13.20966L112.5464,367.70804z"/>
	</g>
</g>
</svg>
