<?xml version="1.0" encoding="utf-8"?>
<!-- Generator: Adobe Illustrator 18.0.0, SVG Export Plug-In . SVG Version: 6.00 Build 0)  -->
<!DOCTYPE svg PUBLIC "-//W3C//DTD SVG 1.1//EN" "http://www.w3.org/Graphics/SVG/1.1/DTD/svg11.dtd">
<svg version="1.1" id="Layer_1" xmlns="http://www.w3.org/2000/svg" xmlns:xlink="http://www.w3.org/1999/xlink" x="0px" y="0px"
	 viewBox="0 0 500 500" enable-background="new 0 0 500 500" xml:space="preserve">
<g>
	<g>
		<path d="M384.93396,300.6156c-20.45212,0-40.02274-6.62439-54.48163-18.11014
			c-18.81949,11.60049-43.42361,18.11014-69.32651,18.11014c-31.8544,0-61.07993-9.63928-80.49405-26.17413
			c-19.19507,9.26889-42.31781,14.3024-66.23861,14.3024C50.2462,288.74387,0,254.20319,0,210.11192
			c0-28.67784,21.25018-53.9861,56.229-67.91295c-0.0313-0.70418-0.04694-1.41356-0.04694-2.11772
			c0-42.76117,55.24317-76.25864,125.76415-76.25864c41.12332,0,79.09096,11.7987,102.27107,31.29108
			c23.42526-12.04386,54.1478-18.82994,86.11176-18.82994C443.04074,76.28376,500,109.91163,500,152.83971
			c0,22.54898-15.88287,43.33493-43.27756,57.57997c4.24066,8.06401,6.48355,16.84262,6.48355,25.74641
			C463.20599,271.70303,428.09155,300.6156,384.93396,300.6156z M333.19598,246.93723l8.46042,9.55582
			c9.65491,10.90674,25.83508,17.41638,43.27756,17.41638c28.43268,0,51.56586-16.9313,51.56586-37.74333
			c0-9.91049-5.30472-17.37988-9.74878-21.89697l-14.42761-14.6571l19.25766-7.21379
			c25.73077-9.63927,41.71274-24.7971,41.71274-39.55852c0-23.57654-42.2865-49.84978-102.96478-49.84978
			c-31.41107,0-60.93912,7.26074-81.01569,19.92531l-9.47757,5.97758l-7.53195-8.29351
			c-16.59225-18.2666-52.06139-30.07052-90.35762-30.07052c-58.37802,0-99.05798,26.11675-99.05798,49.55246
			c0,2.25333,0.38078,4.60056,1.12667,6.97908l4.03722,12.84712l-12.87321,3.92769
			c-29.4446,8.99246-48.47274,27.15474-48.47274,46.27678c0,28.1458,40.15314,51.92577,87.687,51.92577
			c23.10188,0,45.00928-5.48206,61.67977-15.4343l9.46191-5.64897l7.34419,8.22049
			c13.61911,15.25694,39.77238,24.73451,68.24678,24.73451c24.21811,0,47.45041-7.0834,62.13879-18.94991L333.19598,246.93723z"/>
	</g>
	<g>
		
			<line fill="none" stroke="#000000" stroke-width="2.13649" stroke-miterlimit="10" x1="140.85559" y1="336.81451" x2="187.0014" y2="336.81451"/>
		
			<line fill="none" stroke="#000000" stroke-width="2.13649" stroke-miterlimit="10" x1="163.9285" y1="313.74161" x2="163.9285" y2="359.88742"/>
		
			<line fill="none" stroke="#000000" stroke-width="2.13649" stroke-miterlimit="10" x1="169.38728" y1="308.28281" x2="158.46973" y2="319.20038"/>
		
			<line fill="none" stroke="#000000" stroke-width="2.13649" stroke-miterlimit="10" x1="158.46973" y1="308.28281" x2="169.38728" y2="319.20038"/>
		
			<line fill="none" stroke="#000000" stroke-width="2.13649" stroke-miterlimit="10" x1="169.38728" y1="365.34619" x2="158.46973" y2="354.42862"/>
		
			<line fill="none" stroke="#000000" stroke-width="2.13649" stroke-miterlimit="10" x1="158.46973" y1="365.34619" x2="169.38728" y2="354.42862"/>
		
			<line fill="none" stroke="#000000" stroke-width="2.13649" stroke-miterlimit="10" x1="147.61349" y1="320.49948" x2="180.24352" y2="353.12952"/>
		
			<line fill="none" stroke="#000000" stroke-width="2.13649" stroke-miterlimit="10" x1="147.61349" y1="312.77963" x2="147.61349" y2="328.21936"/>
		
			<line fill="none" stroke="#000000" stroke-width="2.13649" stroke-miterlimit="10" x1="139.89363" y1="320.49948" x2="155.33336" y2="320.49948"/>
		
			<line fill="none" stroke="#000000" stroke-width="2.13649" stroke-miterlimit="10" x1="187.96338" y1="353.12952" x2="172.52364" y2="353.12952"/>
		
			<line fill="none" stroke="#000000" stroke-width="2.13649" stroke-miterlimit="10" x1="180.24352" y1="360.84937" x2="180.24352" y2="345.40964"/>
		
			<line fill="none" stroke="#000000" stroke-width="2.13649" stroke-miterlimit="10" x1="177.23259" y1="323.51041" x2="163.9285" y2="336.81451"/>
		
			<line fill="none" stroke="#000000" stroke-width="2.13649" stroke-miterlimit="10" x1="135.39682" y1="331.35571" x2="146.31436" y2="342.27328"/>
		
			<line fill="none" stroke="#000000" stroke-width="2.13649" stroke-miterlimit="10" x1="135.39682" y1="342.27328" x2="146.31436" y2="331.35571"/>
		
			<line fill="none" stroke="#000000" stroke-width="2.13649" stroke-miterlimit="10" x1="192.46019" y1="331.35571" x2="181.54263" y2="342.27328"/>
		
			<line fill="none" stroke="#000000" stroke-width="2.13649" stroke-miterlimit="10" x1="192.46019" y1="342.27328" x2="181.54263" y2="331.35571"/>
		
			<line fill="none" stroke="#000000" stroke-width="2.13649" stroke-miterlimit="10" x1="163.9285" y1="317.99969" x2="163.9285" y2="336.81451"/>
		
			<line fill="none" stroke="#000000" stroke-width="2.13649" stroke-miterlimit="10" x1="147.61349" y1="353.12952" x2="180.24352" y2="320.49948"/>
		
			<line fill="none" stroke="#000000" stroke-width="2.13649" stroke-miterlimit="10" x1="139.89363" y1="353.12952" x2="155.33336" y2="353.12952"/>
		
			<line fill="none" stroke="#000000" stroke-width="2.13649" stroke-miterlimit="10" x1="147.61349" y1="360.84937" x2="147.61349" y2="345.40964"/>
		
			<line fill="none" stroke="#000000" stroke-width="2.13649" stroke-miterlimit="10" x1="180.24352" y1="312.77963" x2="180.24352" y2="328.21936"/>
		
			<line fill="none" stroke="#000000" stroke-width="2.13649" stroke-miterlimit="10" x1="187.96338" y1="320.49948" x2="172.52364" y2="320.49948"/>
		
			<line fill="none" stroke="#000000" stroke-width="2.13649" stroke-miterlimit="10" x1="150.62442" y1="323.51041" x2="163.9285" y2="336.81451"/>
		<polygon fill="none" stroke="#000000" stroke-width="2.13649" stroke-miterlimit="10" points="160.032,346.2215 154.5215,340.711 
			154.5215,332.918 160.032,327.4075 167.82501,327.4075 173.33551,332.918 173.33551,340.711 167.82501,346.2215 		"/>
	</g>
	<g>
		
			<line fill="none" stroke="#000000" stroke-width="2.13649" stroke-miterlimit="10" x1="250.99696" y1="336.81451" x2="297.14279" y2="336.81451"/>
		
			<line fill="none" stroke="#000000" stroke-width="2.13649" stroke-miterlimit="10" x1="274.06989" y1="313.74161" x2="274.06989" y2="359.88742"/>
		
			<line fill="none" stroke="#000000" stroke-width="2.13649" stroke-miterlimit="10" x1="279.52866" y1="308.28284" x2="268.61111" y2="319.20038"/>
		
			<line fill="none" stroke="#000000" stroke-width="2.13649" stroke-miterlimit="10" x1="268.61111" y1="308.28284" x2="279.52866" y2="319.20038"/>
		
			<line fill="none" stroke="#000000" stroke-width="2.13649" stroke-miterlimit="10" x1="279.52866" y1="365.34619" x2="268.61111" y2="354.42865"/>
		
			<line fill="none" stroke="#000000" stroke-width="2.13649" stroke-miterlimit="10" x1="268.61111" y1="365.34619" x2="279.52866" y2="354.42865"/>
		
			<line fill="none" stroke="#000000" stroke-width="2.13649" stroke-miterlimit="10" x1="257.75485" y1="320.49948" x2="290.38489" y2="353.12952"/>
		
			<line fill="none" stroke="#000000" stroke-width="2.13649" stroke-miterlimit="10" x1="257.75485" y1="312.77963" x2="257.75485" y2="328.21936"/>
		
			<line fill="none" stroke="#000000" stroke-width="2.13649" stroke-miterlimit="10" x1="250.035" y1="320.49948" x2="265.47473" y2="320.49948"/>
		
			<line fill="none" stroke="#000000" stroke-width="2.13649" stroke-miterlimit="10" x1="298.10477" y1="353.12952" x2="282.66501" y2="353.12952"/>
		
			<line fill="none" stroke="#000000" stroke-width="2.13649" stroke-miterlimit="10" x1="290.38489" y1="360.8494" x2="290.38489" y2="345.40964"/>
		
			<line fill="none" stroke="#000000" stroke-width="2.13649" stroke-miterlimit="10" x1="287.37396" y1="323.51041" x2="274.06989" y2="336.81451"/>
		
			<line fill="none" stroke="#000000" stroke-width="2.13649" stroke-miterlimit="10" x1="245.53819" y1="331.35574" x2="256.45575" y2="342.27328"/>
		
			<line fill="none" stroke="#000000" stroke-width="2.13649" stroke-miterlimit="10" x1="245.53819" y1="342.27328" x2="256.45575" y2="331.35574"/>
		
			<line fill="none" stroke="#000000" stroke-width="2.13649" stroke-miterlimit="10" x1="302.60156" y1="331.35574" x2="291.68402" y2="342.27328"/>
		
			<line fill="none" stroke="#000000" stroke-width="2.13649" stroke-miterlimit="10" x1="302.60156" y1="342.27328" x2="291.68402" y2="331.35574"/>
		
			<line fill="none" stroke="#000000" stroke-width="2.13649" stroke-miterlimit="10" x1="274.06989" y1="317.99969" x2="274.06989" y2="336.81451"/>
		
			<line fill="none" stroke="#000000" stroke-width="2.13649" stroke-miterlimit="10" x1="257.75485" y1="353.12952" x2="290.38489" y2="320.49948"/>
		
			<line fill="none" stroke="#000000" stroke-width="2.13649" stroke-miterlimit="10" x1="250.035" y1="353.12952" x2="265.47473" y2="353.12952"/>
		
			<line fill="none" stroke="#000000" stroke-width="2.13649" stroke-miterlimit="10" x1="257.75485" y1="360.8494" x2="257.75485" y2="345.40964"/>
		
			<line fill="none" stroke="#000000" stroke-width="2.13649" stroke-miterlimit="10" x1="290.38489" y1="312.77963" x2="290.38489" y2="328.21936"/>
		
			<line fill="none" stroke="#000000" stroke-width="2.13649" stroke-miterlimit="10" x1="298.10477" y1="320.49948" x2="282.66501" y2="320.49948"/>
		
			<line fill="none" stroke="#000000" stroke-width="2.13649" stroke-miterlimit="10" x1="260.76578" y1="323.51041" x2="274.06989" y2="336.81451"/>
		<polygon fill="none" stroke="#000000" stroke-width="2.13649" stroke-miterlimit="10" points="270.17337,346.22153 
			264.66287,340.71103 264.66287,332.918 270.17337,327.4075 277.9664,327.4075 283.4769,332.918 283.4769,340.71103 
			277.9664,346.22153 		"/>
	</g>
	<g>
		
			<line fill="none" stroke="#000000" stroke-width="2.13649" stroke-miterlimit="10" x1="195.9263" y1="407.64569" x2="242.07211" y2="407.64569"/>
		
			<line fill="none" stroke="#000000" stroke-width="2.13649" stroke-miterlimit="10" x1="218.99921" y1="384.57278" x2="218.99921" y2="430.7186"/>
		
			<line fill="none" stroke="#000000" stroke-width="2.13649" stroke-miterlimit="10" x1="224.45798" y1="379.11401" x2="213.54044" y2="390.03156"/>
		
			<line fill="none" stroke="#000000" stroke-width="2.13649" stroke-miterlimit="10" x1="213.54044" y1="379.11401" x2="224.45798" y2="390.03156"/>
		
			<line fill="none" stroke="#000000" stroke-width="2.13649" stroke-miterlimit="10" x1="224.45798" y1="436.17737" x2="213.54044" y2="425.25983"/>
		
			<line fill="none" stroke="#000000" stroke-width="2.13649" stroke-miterlimit="10" x1="213.54044" y1="436.17737" x2="224.45798" y2="425.25983"/>
		
			<line fill="none" stroke="#000000" stroke-width="2.13649" stroke-miterlimit="10" x1="202.68419" y1="391.33069" x2="235.31421" y2="423.96069"/>
		
			<line fill="none" stroke="#000000" stroke-width="2.13649" stroke-miterlimit="10" x1="202.68419" y1="383.61081" x2="202.68419" y2="399.05057"/>
		
			<line fill="none" stroke="#000000" stroke-width="2.13649" stroke-miterlimit="10" x1="194.96432" y1="391.33069" x2="210.40407" y2="391.33069"/>
		
			<line fill="none" stroke="#000000" stroke-width="2.13649" stroke-miterlimit="10" x1="243.03409" y1="423.96069" x2="227.59435" y2="423.96069"/>
		
			<line fill="none" stroke="#000000" stroke-width="2.13649" stroke-miterlimit="10" x1="235.31421" y1="431.68057" x2="235.31421" y2="416.24084"/>
		
			<line fill="none" stroke="#000000" stroke-width="2.13649" stroke-miterlimit="10" x1="232.30328" y1="394.34161" x2="218.99921" y2="407.64569"/>
		
			<line fill="none" stroke="#000000" stroke-width="2.13649" stroke-miterlimit="10" x1="190.46753" y1="402.18692" x2="201.38507" y2="413.10446"/>
		
			<line fill="none" stroke="#000000" stroke-width="2.13649" stroke-miterlimit="10" x1="190.46753" y1="413.10446" x2="201.38507" y2="402.18692"/>
		
			<line fill="none" stroke="#000000" stroke-width="2.13649" stroke-miterlimit="10" x1="247.53088" y1="402.18692" x2="236.61334" y2="413.10446"/>
		
			<line fill="none" stroke="#000000" stroke-width="2.13649" stroke-miterlimit="10" x1="247.53088" y1="413.10446" x2="236.61334" y2="402.18692"/>
		
			<line fill="none" stroke="#000000" stroke-width="2.13649" stroke-miterlimit="10" x1="218.99921" y1="388.83087" x2="218.99921" y2="407.64569"/>
		
			<line fill="none" stroke="#000000" stroke-width="2.13649" stroke-miterlimit="10" x1="202.68419" y1="423.96069" x2="235.31421" y2="391.33069"/>
		
			<line fill="none" stroke="#000000" stroke-width="2.13649" stroke-miterlimit="10" x1="194.96432" y1="423.96069" x2="210.40407" y2="423.96069"/>
		
			<line fill="none" stroke="#000000" stroke-width="2.13649" stroke-miterlimit="10" x1="202.68419" y1="431.68057" x2="202.68419" y2="416.24084"/>
		
			<line fill="none" stroke="#000000" stroke-width="2.13649" stroke-miterlimit="10" x1="235.31421" y1="383.61081" x2="235.31421" y2="399.05057"/>
		
			<line fill="none" stroke="#000000" stroke-width="2.13649" stroke-miterlimit="10" x1="243.03409" y1="391.33069" x2="227.59435" y2="391.33069"/>
		
			<line fill="none" stroke="#000000" stroke-width="2.13649" stroke-miterlimit="10" x1="205.69511" y1="394.34161" x2="218.99921" y2="407.64569"/>
		<polygon fill="none" stroke="#000000" stroke-width="2.13649" stroke-miterlimit="10" points="215.10269,417.0527 
			209.59219,411.54221 209.59219,403.74918 215.10269,398.23868 222.89572,398.23868 228.40622,403.74918 228.40622,411.54221 
			222.89572,417.0527 		"/>
	</g>
	<g>
		
			<line fill="none" stroke="#000000" stroke-width="2.13649" stroke-miterlimit="10" x1="306.06766" y1="407.64569" x2="352.21347" y2="407.64569"/>
		
			<line fill="none" stroke="#000000" stroke-width="2.13649" stroke-miterlimit="10" x1="329.14056" y1="384.57278" x2="329.14056" y2="430.7186"/>
		
			<line fill="none" stroke="#000000" stroke-width="2.13649" stroke-miterlimit="10" x1="334.59933" y1="379.11401" x2="323.68179" y2="390.03156"/>
		
			<line fill="none" stroke="#000000" stroke-width="2.13649" stroke-miterlimit="10" x1="323.68179" y1="379.11401" x2="334.59933" y2="390.03156"/>
		
			<line fill="none" stroke="#000000" stroke-width="2.13649" stroke-miterlimit="10" x1="334.59933" y1="436.17737" x2="323.68179" y2="425.25983"/>
		
			<line fill="none" stroke="#000000" stroke-width="2.13649" stroke-miterlimit="10" x1="323.68179" y1="436.17737" x2="334.59933" y2="425.25983"/>
		
			<line fill="none" stroke="#000000" stroke-width="2.13649" stroke-miterlimit="10" x1="312.82556" y1="391.33069" x2="345.4556" y2="423.96069"/>
		
			<line fill="none" stroke="#000000" stroke-width="2.13649" stroke-miterlimit="10" x1="312.82556" y1="383.61081" x2="312.82556" y2="399.05057"/>
		
			<line fill="none" stroke="#000000" stroke-width="2.13649" stroke-miterlimit="10" x1="305.10571" y1="391.33069" x2="320.54544" y2="391.33069"/>
		
			<line fill="none" stroke="#000000" stroke-width="2.13649" stroke-miterlimit="10" x1="353.17545" y1="423.96069" x2="337.73572" y2="423.96069"/>
		
			<line fill="none" stroke="#000000" stroke-width="2.13649" stroke-miterlimit="10" x1="345.4556" y1="431.68057" x2="345.4556" y2="416.24084"/>
		
			<line fill="none" stroke="#000000" stroke-width="2.13649" stroke-miterlimit="10" x1="342.44467" y1="394.34161" x2="329.14056" y2="407.64569"/>
		
			<line fill="none" stroke="#000000" stroke-width="2.13649" stroke-miterlimit="10" x1="300.60889" y1="402.18692" x2="311.52643" y2="413.10446"/>
		
			<line fill="none" stroke="#000000" stroke-width="2.13649" stroke-miterlimit="10" x1="300.60889" y1="413.10446" x2="311.52643" y2="402.18692"/>
		
			<line fill="none" stroke="#000000" stroke-width="2.13649" stroke-miterlimit="10" x1="357.67224" y1="402.18692" x2="346.7547" y2="413.10446"/>
		
			<line fill="none" stroke="#000000" stroke-width="2.13649" stroke-miterlimit="10" x1="357.67224" y1="413.10446" x2="346.7547" y2="402.18692"/>
		
			<line fill="none" stroke="#000000" stroke-width="2.13649" stroke-miterlimit="10" x1="329.14056" y1="388.83087" x2="329.14056" y2="407.64569"/>
		
			<line fill="none" stroke="#000000" stroke-width="2.13649" stroke-miterlimit="10" x1="312.82556" y1="423.96069" x2="345.4556" y2="391.33069"/>
		
			<line fill="none" stroke="#000000" stroke-width="2.13649" stroke-miterlimit="10" x1="305.10571" y1="423.96069" x2="320.54544" y2="423.96069"/>
		
			<line fill="none" stroke="#000000" stroke-width="2.13649" stroke-miterlimit="10" x1="312.82556" y1="431.68057" x2="312.82556" y2="416.24084"/>
		
			<line fill="none" stroke="#000000" stroke-width="2.13649" stroke-miterlimit="10" x1="345.4556" y1="383.61081" x2="345.4556" y2="399.05057"/>
		
			<line fill="none" stroke="#000000" stroke-width="2.13649" stroke-miterlimit="10" x1="353.17545" y1="391.33069" x2="337.73572" y2="391.33069"/>
		
			<line fill="none" stroke="#000000" stroke-width="2.13649" stroke-miterlimit="10" x1="315.83649" y1="394.34161" x2="329.14056" y2="407.64569"/>
		<polygon fill="none" stroke="#000000" stroke-width="2.13649" stroke-miterlimit="10" points="325.24408,417.0527 
			319.73358,411.54221 319.73358,403.74918 325.24408,398.23868 333.03708,398.23868 338.54758,403.74918 338.54758,411.54221 
			333.03708,417.0527 		"/>
	</g>
</g>
</svg>
