<?xml version="1.0" encoding="utf-8"?>
<!-- Generator: Adobe Illustrator 18.0.0, SVG Export Plug-In . SVG Version: 6.00 Build 0)  -->
<!DOCTYPE svg PUBLIC "-//W3C//DTD SVG 1.1//EN" "http://www.w3.org/Graphics/SVG/1.1/DTD/svg11.dtd">
<svg version="1.1" id="Layer_1" xmlns="http://www.w3.org/2000/svg" xmlns:xlink="http://www.w3.org/1999/xlink" x="0px" y="0px"
	 viewBox="0 0 500 500" enable-background="new 0 0 500 500" xml:space="preserve">
<g>
	<g>
		<path fill="#FFFFFF" d="M283.93564,347.52753c25.00555,6.7002,23.36316-21.43726,23.36316-21.43726l-2.944-54.76804
			l-29.93362,45.95853C274.42117,317.28076,258.93008,340.8273,283.93564,347.52753
			c25.00555,6.7002,23.36316-21.43726,23.36316-21.43726"/>
		<path d="M291.01379,356.556c-2.70712,0-5.74808-0.3808-9.15417-1.28839c-12.00214-3.21829-16.81131-9.91049-18.73083-14.95963
			c-4.78833-12.5863,3.62515-25.94983,4.60056-27.43118l43.30887-66.4994l4.26151,79.26308c0,0.01566,0,0.02606,0,0.04172
			c0.10431,1.83606,0.66766,17.52594-9.73315,25.9968C302.56735,354.12531,297.85724,356.556,291.01379,356.556z
			 M286.73663,339.97418c3.94333,0.94931,6.83301,0.73544,8.61169-0.6416c0.00522,0,0.00522-0.00519,0.00522-0.00519
			c0.02609-0.02087,0.05215-0.03653,0.07303-0.0574c3.01486-2.43066,3.88596-8.67429,3.88596-11.99167
			c0-0.27646-0.00522-0.53204-0.01566-0.76157l-1.62219-30.25308l-16.5401,25.38651
			c-1.63782,2.54544-4.53275,9.07071-3.02008,12.98276c0.86588,2.24811,3.52606,3.98505,7.89188,5.15344h0.00522l0,0
			C286.25674,339.85419,286.4967,339.91678,286.73663,339.97418z"/>
	</g>
	<g>
		<path fill="#FFFFFF" d="M319.12668,420.48434c25.00555,6.70023,23.36316-21.43723,23.36316-21.43723l-2.944-54.76807
			l-29.93362,45.95853C309.61221,390.23758,294.12112,413.78412,319.12668,420.48434s23.36316-21.43723,23.36316-21.43723"/>
		<path d="M326.20648,429.51285c-2.70715,0-5.74811-0.38077-9.15417-1.28836c-12.00214-3.21829-16.81134-9.91049-18.73083-14.95963
			c-4.78833-12.58633,3.62515-25.94983,4.60056-27.43118l43.30365-66.49942l4.26672,79.27872v0.00522
			c0.09909,1.74216,0.70416,17.5155-9.73315,26.01767C337.76001,427.08218,333.04993,429.51285,326.20648,429.51285z
			 M321.92932,412.93103c3.92767,0.94412,6.80695,0.73026,8.59082-0.62592l0,0c0.00522-0.00522,0.01044-0.00522,0.01566-0.01044
			c0.02087-0.01566,0.04694-0.0365,0.06781-0.05737c0.00522,0,0.01044-0.00522,0.01566-0.01044
			c3.01486-2.43066,3.88596-8.67429,3.88596-11.9917c0-0.27643-0.00522-0.53201-0.01566-0.76154l-1.62741-30.25308
			l-16.53488,25.38651c-1.63785,2.54544-4.53275,9.07071-3.02008,12.98276c0.86584,2.24811,3.52603,3.98505,7.89188,5.15344h0.00522
			l0,0C321.44943,412.81107,321.68936,412.87366,321.92932,412.93103z"/>
	</g>
	<g>
		<g>
			<polygon points="200.07719,416.04501 180.53787,407.39682 205.96091,349.95767 156.90918,368.12518 205.64272,266.02103 
				224.92123,275.22214 198.8775,329.79767 245.96799,312.36041 			"/>
		</g>
		<g>
			<g>
				<polygon points="173.3455,397.3981 177.89439,439.76251 212.31216,414.64563 				"/>
			</g>
		</g>
	</g>
	<g>
		<path d="M486.64734,149.25867c0-34.907-52.07834-63.20461-116.32016-63.20461c-35.2457,0-66.80563,8.52966-88.13699,21.98358
			c-18.56607-20.43604-56.46774-34.44646-100.24104-34.44646c-62.08434,0-112.41367,28.16482-112.41367,62.90782
			c0,3.74904,0.61951,7.41505,1.74314,10.98381c-34.23282,10.45351-57.9239,32.95815-57.9239,59.04567
			c0,36.0542,45.23629,65.28178,101.03823,65.28178c26.45059,0,50.51613-6.57462,68.52638-17.32281
			c15.57448,17.44083,44.75403,29.19226,78.20934,29.19226c28.55807,0,53.9986-8.56561,70.52737-21.91882
			c11.72983,13.24487,31.2124,21.91882,53.27924,21.91882c35.85263,0,64.91699-22.87747,64.91699-51.09814
			c0-11.77959-5.07718-22.61961-13.58487-31.26218C466.69281,189.91951,486.64734,170.85909,486.64734,149.25867z"/>
		<path d="M384.93396,297.03043c-20.45212,0-40.02274-6.62436-54.48163-18.11011
			c-18.81949,11.60049-43.4184,18.11011-69.32129,18.11011c-31.86484,0-61.09036-9.63925-80.49406-26.16891
			c-19.20549,9.26892-42.32823,14.30243-66.24381,14.30243C50.2462,285.16394,0,250.62326,0,206.52678
			c0-28.67784,21.25018-53.9861,56.229-67.91296c-0.0313-0.70416-0.04694-1.40833-0.04694-2.11249
			c0-42.76639,55.24317-76.26385,125.76937-76.26385c41.1181,0,79.08574,11.79871,102.26585,31.2963
			c23.43048-12.04907,54.15823-18.83515,86.11176-18.83515C443.04074,72.69862,500,106.32648,500,149.25978
			c0,22.54376-15.88287,43.32971-43.27756,57.57996c4.24066,8.05879,6.48355,16.8374,6.48355,25.74121
			C463.20599,268.11789,428.09155,297.03043,384.93396,297.03043z M333.19598,243.35208l8.46042,9.5558
			c9.65491,10.90675,25.83508,17.4164,43.27756,17.4164c28.43268,0,51.56586-16.9313,51.56586-37.74333
			c0-9.91051-5.2995-17.37466-9.74878-21.89177l-14.43283-14.65187l19.26288-7.21901
			c25.73077-9.64449,41.71274-24.80232,41.71274-39.55852c0-23.58176-42.2865-49.855-102.96478-49.855
			c-31.40585,0-60.9339,7.26074-81.0209,19.92531l-9.47235,5.97758l-7.53195-8.29351
			c-16.59225-18.26661-52.06139-30.07053-90.3524-30.07053c-58.37802,0-99.0632,26.11676-99.0632,49.55769
			c0,2.24811,0.38078,4.59534,1.12667,6.97385l4.03722,12.84714L75.17891,160.25
			c-29.4446,8.99246-48.47274,27.15474-48.47274,46.27678c0,28.15102,40.15314,51.93098,87.687,51.93098
			c23.09145,0,44.99885-5.48207,61.68499-15.4343l9.46713-5.64897l7.33897,8.22049
			c13.61389,15.25172,39.76717,24.72929,68.24678,24.72929c24.21811,0,47.44519-7.0834,62.13358-18.94992L333.19598,243.35208z"/>
	</g>
</g>
</svg>
