<?xml version="1.0" encoding="utf-8"?>
<!-- Generator: Adobe Illustrator 18.0.0, SVG Export Plug-In . SVG Version: 6.00 Build 0)  -->
<!DOCTYPE svg PUBLIC "-//W3C//DTD SVG 1.1//EN" "http://www.w3.org/Graphics/SVG/1.1/DTD/svg11.dtd">
<svg version="1.1" id="Layer_1" xmlns="http://www.w3.org/2000/svg" xmlns:xlink="http://www.w3.org/1999/xlink" x="0px" y="0px"
	 viewBox="0 0 500 500" enable-background="new 0 0 500 500" xml:space="preserve">
<g>
	<g>
		<path d="M112.90999,450c-32.03915-29.55627-31.12374-61.92145-9.88135-83.16382
			c12.94106-12.94107,26.81004-18.78461,57.30679-29.56882c23.09828-8.30133,40.03952-14.15741,51.43819-25.55606
			c11.08517-11.08517,7.39847-25.25513-9.25436-42.50986l18.48364-18.48366c36.05188,32.96709,30.1958,62.84938,11.11024,81.93495
			c-12.3266,12.3266-27.12355,19.69998-58.23474,31.09863c-21.54335,7.39847-39.41254,12.32663-50.51024,23.42432
			c-11.08517,11.08517-10.15723,25.55609,7.71196,44.65417L112.90999,450z"/>
	</g>
	<g>
		<path d="M102.06807,285.31223c-32.03915-29.55627-31.12374-61.92145-9.88135-83.16383
			c12.94105-12.94106,26.81005-18.78459,57.30679-29.5688c23.09828-8.30135,40.03952-14.15742,51.43819-25.55608
			c11.08517-11.08517,7.39847-25.25513-9.25436-42.50986l18.48364-18.48363c36.05188,32.96708,30.1958,62.84938,11.11024,81.93494
			c-12.3266,12.3266-27.12355,19.69998-58.23474,31.09865c-21.54335,7.39847-39.41254,12.32661-50.51024,23.42432
			c-11.08517,11.08516-10.15723,25.55608,7.71197,44.65414L102.06807,285.31223z"/>
	</g>
	<g>
		<path d="M288.62369,249.28221c-32.03915-29.55627-31.12375-61.92145-9.88135-83.16383
			c12.94104-12.94106,26.81003-18.78459,57.30679-29.5688c23.09827-8.30135,40.03952-14.15742,51.43817-25.55608
			c11.08517-11.08517,7.39847-25.25512-9.25436-42.50986L396.71658,50c36.05188,32.96709,30.1958,62.84939,11.11026,81.93494
			c-12.3266,12.3266-27.12357,19.7-58.23474,31.09865c-21.54337,7.39848-39.41254,12.32661-50.51025,23.42432
			c-11.08517,11.08516-10.15723,25.55608,7.71198,44.65416L288.62369,249.28221z"/>
	</g>
	<g>
		<path d="M287.01736,426.39822c-32.03912-29.55624-31.12372-61.92142-9.88135-83.16382
			c12.94107-12.94104,26.81006-18.78461,57.30682-29.56882c23.09827-8.30133,40.03952-14.15741,51.43817-25.55606
			c11.08517-11.08517,7.39847-25.25513-9.25436-42.50986l18.48364-18.48364c36.05188,32.96707,30.1958,62.8494,11.11026,81.93494
			c-12.32663,12.3266-27.12357,19.69998-58.23474,31.09866c-21.54337,7.39847-39.41254,12.3266-50.51025,23.42432
			c-11.08517,11.08514-10.15723,25.55606,7.71198,44.65414L287.01736,426.39822z"/>
	</g>
</g>
</svg>
