<?xml version="1.0" encoding="utf-8"?>
<!-- Generator: Adobe Illustrator 18.0.0, SVG Export Plug-In . SVG Version: 6.00 Build 0)  -->
<!DOCTYPE svg PUBLIC "-//W3C//DTD SVG 1.1//EN" "http://www.w3.org/Graphics/SVG/1.1/DTD/svg11.dtd">
<svg version="1.1" id="Layer_1" xmlns="http://www.w3.org/2000/svg" xmlns:xlink="http://www.w3.org/1999/xlink" x="0px" y="0px"
	 viewBox="0 0 500 500" enable-background="new 0 0 500 500" xml:space="preserve">
<g>
	<g>
		<rect x="-87.2093" y="232.55814" fill="#FFFFFF" width="87.2093" height="29.06977"/>
	</g>
</g>
<g>
	<g>
		<path fill="#FFFFFF" d="M294.49237,457.15277c-75.93736,0-137.71353-61.78186-137.71353-137.71921
			c0-68.11803,50.87115-126.67781,118.32999-136.21332l23.58871-3.33572l-7.81366,22.50902
			c-4.04037,11.64377-6.08612,23.61143-6.08612,35.57344c0,59.8952,48.72879,108.62399,108.61832,108.62399
			c4.58023,0,9.44458-0.38641,15.30341-1.22177l23.60574-3.34708l-7.81366,22.52036
			C405.28714,419.93704,353.0408,457.15277,294.49237,457.15277z M257.26529,217.52646
			c-41.92097,15.36591-71.39124,55.86621-71.39124,101.9071c0,59.8952,48.72879,108.62399,108.61832,108.62399
			c38.48294,0,73.52222-20.40076,92.89441-52.50208c-73.14719-3.16525-131.68423-63.66849-131.68423-137.5885
			C255.70255,231.13074,256.22534,224.30586,257.26529,217.52646z"/>
	</g>
	<g>
		<path fill="#FFFFFF" d="M475.62708,193.27855l-39.42059-20.72466l-39.42627,20.72466l7.52951-43.90421l-31.89108-31.08982
			l44.07471-6.40436l19.71313-39.93772l19.71313,39.93772L500,118.28452l-31.90244,31.0955L475.62708,193.27855z
			 M397.42233,126.41072l19.38925,18.9062l-4.57455,26.68576l23.96945-12.59845l23.96378,12.59845l-4.57455-26.69145
			l19.38925-18.90051l-26.79373-3.89262l-11.98474-24.28199l-11.98471,24.28199L397.42233,126.41072z"/>
	</g>
	<g>
		<path fill="#FFFFFF" d="M237.04639,164.18335l-39.42061-20.72466l-39.42627,20.72466l7.52953-43.90422l-31.89108-31.08698
			l44.07469-6.40436l19.71313-39.94056l19.71315,39.94056l44.08038,6.40436l-31.90245,31.09266L237.04639,164.18335z
			 M158.84164,97.31835l19.38924,18.90337l-4.57454,26.68575l23.96944-12.59845l23.96378,12.59845l-4.57454-26.69144
			l19.38922-18.89768l-26.79373-3.89262l-11.98473-24.28484l-11.98471,24.28484L158.84164,97.31835z"/>
	</g>
	<g>
		<path fill="#FFFFFF" d="M103.20843,367.84979l-39.42059-20.72464l-39.42628,20.72464l7.52952-43.90421L0,292.85577
			l44.07469-6.40436l19.71314-39.94341l19.71313,39.94341l44.08038,6.40436l-31.90244,31.09549L103.20843,367.84979z
			 M25.00369,300.98196l19.38923,18.90619l-4.57454,26.68576l23.96945-12.59845l23.96377,12.59845l-4.57454-26.69144
			l19.38923-18.90051l-26.79373-3.89261l-11.98473-24.28201l-11.98473,24.28201L25.00369,300.98196z"/>
	</g>
</g>
</svg>
