<?xml version="1.0" encoding="utf-8"?>
<!-- Generator: Adobe Illustrator 18.0.0, SVG Export Plug-In . SVG Version: 6.00 Build 0)  -->
<!DOCTYPE svg PUBLIC "-//W3C//DTD SVG 1.1//EN" "http://www.w3.org/Graphics/SVG/1.1/DTD/svg11.dtd">
<svg version="1.1" id="Layer_1" xmlns="http://www.w3.org/2000/svg" xmlns:xlink="http://www.w3.org/1999/xlink" x="0px" y="0px"
	 viewBox="0 0 500 500" enable-background="new 0 0 500 500" xml:space="preserve">
<g>
	<path fill="#FFFFFF" d="M384.93396,368.39648c-20.45212,0-40.02274-6.62439-54.48685-18.11014
		c-18.81427,11.60049-43.41318,18.11014-69.32129,18.11014c-31.8544,0-61.07993-9.63925-80.49405-26.17413
		c-19.20551,9.27414-42.32825,14.30762-66.23861,14.30762C50.2462,356.52997,0,321.98929,0,277.89282
		c0-28.67784,21.25018-53.9861,56.229-67.91295c-0.0313-0.70418-0.04694-1.41356-0.04694-2.11772
		c0-42.76117,55.24317-76.25864,125.76415-76.25864c41.12332,0,79.09096,11.79871,102.27107,31.2963
		c23.43048-12.04907,54.15302-18.83516,86.10654-18.83516C443.04074,144.06465,500,177.69252,500,220.62582
		c0,22.54376-15.88287,43.32971-43.27756,57.57996c4.24066,8.05881,6.48355,16.8374,6.48355,25.74121
		C463.20599,339.48392,428.09155,368.39648,384.93396,368.39648z M333.18555,314.71814l8.46042,9.55579
		c9.66534,10.90677,25.84552,17.41638,43.28799,17.41638c28.43268,0,51.56586-16.93127,51.56586-37.74332
		c0-9.91049-5.2995-17.37466-9.74878-21.89175l-14.43283-14.65189l19.26288-7.21902
		c25.73077-9.64447,41.71274-24.80231,41.71274-39.5585c0-23.58176-42.2865-49.855-102.97-49.855
		c-31.40063,0-60.92868,7.26074-81.01569,19.92531l-9.47235,5.97758l-7.53195-8.29352
		c-16.59225-18.2666-52.06139-30.07051-90.35762-30.07051c-58.37802,0-99.05798,26.11674-99.05798,49.55246
		c0,2.25333,0.38078,4.60056,1.12667,6.97906l4.03722,12.84714l-12.87321,3.92769
		c-29.4446,8.99246-48.47274,27.15474-48.47274,46.27678c0,28.151,40.15314,51.93097,87.687,51.93097
		c23.09145,0,44.99363-5.48206,61.67977-15.43427l9.46191-5.64899l7.33899,8.22049
		c13.62953,15.25171,39.77759,24.72928,68.25198,24.72928c24.22333,0,47.45041-7.08337,62.13358-18.94989L333.18555,314.71814z"/>
</g>
</svg>
