<?xml version="1.0" encoding="utf-8"?>
<!-- Generator: Adobe Illustrator 18.0.0, SVG Export Plug-In . SVG Version: 6.00 Build 0)  -->
<!DOCTYPE svg PUBLIC "-//W3C//DTD SVG 1.1//EN" "http://www.w3.org/Graphics/SVG/1.1/DTD/svg11.dtd">
<svg version="1.1" id="Layer_1" xmlns="http://www.w3.org/2000/svg" xmlns:xlink="http://www.w3.org/1999/xlink" x="0px" y="0px"
	 viewBox="0 0 500 500" enable-background="new 0 0 500 500" xml:space="preserve">
<g>
	<g>
		<path fill="#FFFFFF" d="M142.9406,342.56396c-2.70712,0-5.74287-0.38077-9.14374-1.28836
			c-12.00734-3.21829-16.81654-9.91571-18.74126-14.96484c-4.78312-12.58633,3.63037-25.94461,4.60577-27.42596l16.59746-25.48563
			l13.42612,8.7421l-16.61833,25.51691c-1.63783,2.54544-4.53275,9.06549-3.0201,12.97754
			c0.86586,2.25333,3.52605,3.99026,7.89709,5.15866c4.36063,1.17361,7.5372,0.99628,9.41498-0.51639
			c3.26524-2.63409,4.01636-9.72794,3.8703-12.75323l15.99762-0.89716c0.10432,1.77344,0.70938,17.552-9.7227,26.05417
			C154.49936,340.12808,149.78928,342.56396,142.9406,342.56396z"/>
	</g>
	<g>
		<path fill="#FFFFFF" d="M142.9406,342.56396c-2.70712,0-5.74287-0.38077-9.14374-1.28836l4.14156-15.48123
			c4.38147,1.17361,7.54762,0.99628,9.42018-0.51639c3.26524-2.63409,4.01636-9.72794,3.8703-12.75323l-1.91429-35.61517
			l16.00284-0.85544l1.91429,35.61517c0.09911,1.73172,0.70416,17.51028-9.72792,26.01245
			C154.49936,340.12808,149.78928,342.56396,142.9406,342.56396z"/>
	</g>
	<g>
		<path fill="#FFFFFF" d="M178.12807,415.52084c-2.70714,0-5.74287-0.38077-9.14374-1.28836
			c-12.00734-3.21829-16.81654-9.91571-18.74126-14.96484c-4.78313-12.58633,3.63037-25.94461,4.60577-27.42599l43.30884-66.49939
			l4.26152,79.26306c0,0.01566,0,0.02609,0,0.04175c0.10432,1.84125,0.66243,17.52069-9.72794,25.99158
			C189.68683,413.08496,184.97673,415.52084,178.12807,415.52084z M173.85091,398.93903
			c3.96419,0.94931,6.86432,0.71982,8.64299-0.66245c0.01044-0.01041,0.02086-0.01563,0.0313-0.02606
			c0.00522-0.00522,0.01566-0.01044,0.02086-0.01566c3.01488-2.43588,3.88596-8.67429,3.88596-11.99692
			c0-0.27124-0.0052-0.52682-0.01564-0.75632l-1.62219-30.25308l-16.54008,25.38651
			c-1.63785,2.54544-4.53275,9.06549-3.0201,12.97754c0.86586,2.25333,3.52605,3.99026,7.89709,5.15866
			C173.37625,398.81906,173.61618,398.88165,173.85091,398.93903z"/>
	</g>
	<g>
		<path fill="#FFFFFF" d="M243.29738,360.37677c-2.70714,0-5.74809-0.38077-9.15416-1.28836
			c-12.00214-3.21829-16.81133-9.91049-18.73083-14.95963c-4.78833-12.58633,3.62515-25.94983,4.60056-27.43118l18.02666-27.67636
			l13.42612,8.7421l-18.04753,27.70764c-1.63785,2.54544-4.53275,9.07071-3.0201,12.98276
			c0.86586,2.24811,3.52605,3.98505,7.89189,5.15344c4.38669,1.17361,7.5424,1.0015,9.42018-0.51639
			c3.26524-2.62888,4.01636-9.72794,3.8703-12.75323l15.99763-0.89716c0.10431,1.77347,0.70938,17.552-9.72794,26.05939
			C254.85092,357.94611,250.14084,360.37677,243.29738,360.37677z"/>
	</g>
	<g>
		<path fill="#FFFFFF" d="M243.29738,360.37677c-2.70714,0-5.74809-0.38077-9.15416-1.28836l4.15196-15.48123
			c4.37105,1.17361,7.5372,1.0015,9.41498-0.51639c3.26524-2.62888,4.01636-9.72794,3.8703-12.75323l-1.883-34.98926
			l16.00285-0.86584l1.883,34.99445c0.09909,1.73697,0.70416,17.5155-9.73315,26.02289
			C254.85092,357.94611,250.14084,360.37677,243.29738,360.37677z"/>
	</g>
	<g>
		<path fill="#FFFFFF" d="M278.48483,433.33365c-2.70712,0.00522-5.74286-0.38077-9.14893-1.28836
			c-12.00214-3.21829-16.81134-9.91049-18.73607-14.95963c-4.78833-12.58633,3.62517-25.94983,4.60056-27.43121l43.30885-66.49417
			l4.26672,79.25262c0,0.01566,0,0.03653,0,0.0574c0.10956,1.90384,0.63638,17.53635-9.73834,25.98633
			C290.03839,430.90298,285.32831,433.33365,278.48483,433.33365z M273.97296,416.69446
			c4.0007,0.99106,6.94257,0.82413,8.76297-0.51639c0-0.00522,0-0.00522,0-0.00522c0.02606-0.01566,0.05215-0.0365,0.07822-0.05215
			c0.00522-0.00522,0.01044-0.01044,0.01566-0.01566c0.01566-0.01044,0.02609-0.02087,0.04175-0.03128
			c0.00522-0.00522,0.01041-0.01044,0.01041-0.01044c0.00522-0.00522,0.01044-0.01044,0.01566-0.01566
			c3.02011-2.43066,3.89117-8.67429,3.89117-11.99692c0-0.27124-0.00522-0.52682-0.01566-0.75632l-1.62741-30.2583
			l-16.54007,25.39172c-1.63785,2.54544-4.52753,9.07071-3.02011,12.98276c0.87109,2.24811,3.52606,3.98505,7.89713,5.15344h0.00519
			l0,0C273.64957,416.61099,273.81125,416.65274,273.97296,416.69446z"/>
	</g>
	<g>
		<path fill="#FFFFFF" d="M384.93396,303.45926c-20.45212,0-40.01752-6.62439-54.48163-18.11014
			c-18.81427,11.60049-43.4184,18.11014-69.32129,18.11014c-31.8544,0-61.07993-9.63925-80.49406-26.17413
			c-19.20549,9.27414-42.32823,14.30762-66.24381,14.30762C50.2462,291.59274,0,257.05206,0,212.9556
			c0-28.67784,21.25018-53.9861,56.229-67.91295c-0.0313-0.70418-0.04694-1.41356-0.04694-2.11772
			c0-42.76117,55.24317-76.25864,125.76937-76.25864c41.1181,0,79.08574,11.79871,102.27107,31.29108
			c23.42004-12.04385,54.14258-18.82993,86.10654-18.82993C443.04074,79.12743,500,112.7553,500,155.6886
			c0,22.54376-15.88287,43.33493-43.27234,57.57474c4.23544,8.06401,6.47833,16.84262,6.47833,25.74643
			C463.20599,274.54669,428.09155,303.45926,384.93396,303.45926z M333.19077,249.7809l8.46042,9.5558
			c9.66534,10.90677,25.8403,17.41638,43.28278,17.41638c28.43268,0,51.56586-16.93127,51.56586-37.74332
			c0-9.91571-5.2995-17.37988-9.74356-21.89697l-14.42761-14.6571l19.25766-7.21379
			c25.72556-9.63927,41.70752-24.79189,41.70752-39.5533c0-23.58176-42.2865-49.855-102.96478-49.855
			c-31.41626,0-60.93912,7.26074-81.01047,19.92531l-9.47235,5.97758l-7.53717-8.2883
			c-16.59747-18.27181-52.0666-30.07574-90.35762-30.07574c-58.37802,0-99.0632,26.11676-99.0632,49.55247
			c0,2.25333,0.38078,4.60056,1.12667,6.97906l4.03722,12.84714l-12.87321,3.92769
			c-29.4446,8.99246-48.47274,27.15474-48.47274,46.27678c0,28.15102,40.15314,51.93097,87.687,51.93097
			c23.09145,0,44.99885-5.48206,61.68499-15.43428l9.46191-5.64897l7.33897,8.22049
			c13.62955,15.25171,39.77759,24.72928,68.252,24.72928c24.21811,0,47.44519-7.08337,62.13358-18.94989L333.19077,249.7809z"/>
	</g>
</g>
</svg>
