<?xml version="1.0" encoding="utf-8"?>
<!-- Generator: Adobe Illustrator 18.0.0, SVG Export Plug-In . SVG Version: 6.00 Build 0)  -->
<!DOCTYPE svg PUBLIC "-//W3C//DTD SVG 1.1//EN" "http://www.w3.org/Graphics/SVG/1.1/DTD/svg11.dtd">
<svg version="1.1" id="Layer_1" xmlns="http://www.w3.org/2000/svg" xmlns:xlink="http://www.w3.org/1999/xlink" x="0px" y="0px"
	 viewBox="0 0 500 500" enable-background="new 0 0 500 500" xml:space="preserve">
<g>
	<g>
		<rect x="238.3721" y="-87.2093" fill="#FFFFFF" width="29.06977" height="87.2093"/>
	</g>
</g>
<g>
	<g>
		<g>
			<path fill="#FFFFFF" d="M161.49831,343.94562c-49.20321,0-89.2326-40.02756-89.2326-89.23076s40.02939-89.23442,89.2326-89.23442
				s89.23442,40.03122,89.23442,89.23442h-18.85208c0-38.80878-31.57356-70.38234-70.38234-70.38234
				s-70.38235,31.57356-70.38235,70.38234c0,38.8051,31.57356,70.37868,70.38235,70.37868V343.94562z"/>
		</g>
		<g>
			<rect x="150.81668" y="91.95728" fill="#FFFFFF" width="18.85209" height="56.55626"/>
		</g>
		<g>
			
				<rect x="218.224" y="109.34442" transform="matrix(0.86602 0.5 -0.5 0.86602 99.31241 -95.3875)" fill="#FFFFFF" width="18.85192" height="56.55896"/>
		</g>
		<g>
			
				<rect x="267.90588" y="158.10919" transform="matrix(0.5 0.86602 -0.86602 0.5 300.08026 -146.98299)" fill="#FFFFFF" width="18.85192" height="56.55577"/>
		</g>
		<g>
			
				<rect x="87.64018" y="343.06586" transform="matrix(0.86602 0.5 -0.5 0.86602 198.67809 1.21805)" fill="#FFFFFF" width="18.85192" height="56.55577"/>
		</g>
		<g>
			
				<rect x="37.95739" y="295.22418" transform="matrix(0.5 0.86602 -0.86602 0.5 303.85239 120.715)" fill="#FFFFFF" width="18.85192" height="56.55737"/>
		</g>
		<g>
			<rect y="246.54442" fill="#FFFFFF" width="56.55626" height="18.85209"/>
		</g>
		<g>
			
				<rect x="17.21946" y="179.76685" transform="matrix(0.86603 0.49999 -0.49999 0.86603 100.68988 2.59733)" fill="#FFFFFF" width="56.55737" height="18.85192"/>
		</g>
		<g>
			
				<rect x="65.52229" y="130.54156" transform="matrix(0.5 0.86602 -0.86602 0.5 168.11479 -11.24993)" fill="#FFFFFF" width="56.55577" height="18.85192"/>
		</g>
	</g>
	<g>
		<path fill="#FFFFFF" d="M418.77402,408.04269c-14.43729,0-28.25235-4.67621-38.46268-12.78406
			c-13.28113,8.18887-30.64566,12.78406-48.93439,12.78406c-22.48627,0-43.11679-6.80441-56.82138-18.4765
			c-13.55728,6.54666-29.87981,10.09985-46.75832,10.09985c-45.28183,0-80.75099-24.38254-80.75099-55.51056
			c0-20.2439,15.00066-38.10919,39.69247-47.94028c-0.02209-0.49707-0.03314-0.99783-0.03314-1.4949
			c0-30.18542,38.99657-53.83153,88.77786-53.83153c29.02927,0,55.83087,8.32878,72.19391,22.09227
			c16.53976-8.50552,38.22702-13.29587,60.78323-13.29587c51.33142,0,91.5394,23.73816,91.5394,54.0451
			c0,15.91382-11.21182,30.58676-30.54996,40.64612c2.9935,5.68878,4.57678,11.88565,4.57678,18.1709
			C474.02682,387.63312,449.23929,408.04269,418.77402,408.04269z M382.24442,370.15076l5.97229,6.74548
			c6.82285,7.69919,18.24454,12.29437,30.55731,12.29437c20.07086,0,36.40073-11.95193,36.40073-26.64331
			c0-6.99588-3.74097-12.26489-6.88174-15.45355l-10.18823-10.34286l13.59781-5.09595
			c18.16354-6.80811,29.44534-17.50815,29.44534-27.92465c0-16.64655-29.85037-35.19302-72.68732-35.19302
			c-22.16592,0-43.00998,5.12543-57.18954,14.06543l-6.68661,4.21964l-5.31686-5.85446
			c-11.71262-12.89453-36.75052-21.22702-63.78412-21.22702c-41.20949,0-69.92578,18.43604-69.92578,34.97946
			c0,1.59064,0.2688,3.24756,0.79533,4.92657l2.8499,9.06891l-9.0873,2.77255
			c-20.78516,6.34787-34.21727,19.16876-34.21727,32.66714c0,19.87201,28.34441,36.65848,61.89891,36.65848
			c16.30042,0,31.76134-3.86984,43.54021-10.8952l6.67923-3.98764l5.18066,5.80289
			c9.62119,10.76633,28.07928,17.4566,48.1796,17.4566c17.09943,0,33.49557-5.00021,43.86053-13.37689L382.24442,370.15076z"/>
	</g>
</g>
<g>
	<g>
		<path fill="#FFFFFF" d="M564.55249,301.87335l-24.65814-12.96524l-24.65808,12.96524l4.70917-27.45871L500,254.97035
			l27.56531-4.00542l12.32904-24.98152l12.3291,24.98152l27.56885,4.00542l-19.95251,19.44429L564.55249,301.87335z
			 M515.63788,260.05267l12.12646,11.82437l-2.86102,16.68988l14.99103-7.8829l14.99109,7.8829l-2.86462-16.68988l12.12653-11.82437
			l-16.75745-2.43454l-7.49554-15.18651l-7.49548,15.18651L515.63788,260.05267z"/>
	</g>
</g>
</svg>
