<?xml version="1.0" encoding="utf-8"?>
<!-- Generator: Adobe Illustrator 18.0.0, SVG Export Plug-In . SVG Version: 6.00 Build 0)  -->
<!DOCTYPE svg PUBLIC "-//W3C//DTD SVG 1.1//EN" "http://www.w3.org/Graphics/SVG/1.1/DTD/svg11.dtd">
<svg version="1.1" id="Layer_1" xmlns="http://www.w3.org/2000/svg" xmlns:xlink="http://www.w3.org/1999/xlink" x="0px" y="0px"
	 viewBox="0 0 500 500" enable-background="new 0 0 500 500" xml:space="preserve">
<g>
</g>
<g>
	<g>
		<path fill="#FFFFFF" d="M-81.22598,408.04269c-14.43731,0-28.25235-4.67621-38.46267-12.78406
			c-13.28114,8.18887-30.64569,12.78406-48.93442,12.78406c-22.48627,0-43.11678-6.80441-56.82137-18.4765
			c-13.5573,6.54666-29.87981,10.09985-46.75833,10.09985c-45.2818,0-80.75098-24.38254-80.75098-55.51056
			c0-20.2439,15.00067-38.10919,39.69247-47.94028c-0.02209-0.49707-0.03314-0.99783-0.03314-1.4949
			c0-30.18542,38.99658-53.83153,88.77786-53.83153c29.02925,0,55.83089,8.32878,72.19391,22.09227
			c16.53975-8.50552,38.22701-13.29587,60.78324-13.29587C-40.20796,249.68518,0,273.42334,0,303.73029
			c0,15.91382-11.21184,30.58676-30.54995,40.64612c2.99351,5.68878,4.57679,11.88565,4.57679,18.1709
			C-25.97317,387.63312-50.76071,408.04269-81.22598,408.04269z M-117.75557,370.15076l5.97228,6.74548
			c6.82283,7.69919,18.24454,12.29437,30.55731,12.29437c20.07084,0,36.40073-11.95193,36.40073-26.64331
			c0-6.99588-3.74096-12.26489-6.88175-15.45355l-10.18823-10.34286l13.59781-5.09595
			c18.16354-6.80811,29.44534-17.50815,29.44534-27.92465c0-16.64655-29.85036-35.19302-72.6873-35.19302
			c-22.16592,0-43.01,5.12543-57.18957,14.06543l-6.6866,4.21964l-5.31688-5.85446
			c-11.71259-12.89453-36.75052-21.22702-63.7841-21.22702c-41.20947,0-69.92578,18.43604-69.92578,34.97946
			c0,1.59064,0.2688,3.24756,0.79532,4.92657l2.84991,9.06891l-9.08728,2.77255
			c-20.78519,6.34787-34.21729,19.16876-34.21729,32.66714c0,19.87201,28.34439,36.65848,61.8989,36.65848
			c16.30043,0,31.76135-3.86984,43.54022-10.8952l6.67924-3.98764l5.18063,5.80289
			c9.62119,10.76633,28.0793,17.4566,48.1796,17.4566c17.09943,0,33.49559-5.00021,43.86056-13.37689L-117.75557,370.15076z"/>
	</g>
</g>
<g>
	<g>
		<path fill="#FFFFFF" d="M166.2769,355.85959c-39.53185-8.36627-68.22382-43.80383-68.22382-84.26688
			c0-42.60257,31.81598-79.2272,74.00629-85.19092l14.7458-2.08269l-4.87617,14.07054
			c-2.52693,7.29294-3.80995,14.7778-3.80995,22.252c0,23.54924,11.92744,45.0833,31.90839,57.60783l-9.66705,15.41754
			c-25.31915-15.87247-40.43814-43.17123-40.43814-73.02538c0-4.27199,0.32697-8.54042,0.97736-12.78397
			c-26.21832,9.61018-44.6497,34.94-44.6497,63.73503c0,31.9155,22.62517,59.86823,53.79433,66.461L166.2769,355.85959z"/>
	</g>
	<g>
		<path fill="#FFFFFF" d="M297.47165,192.69249l-24.65811-12.96523l-24.6581,12.96523l4.70914-27.45871l-19.94542-19.44427
			l27.56534-4.00543l12.32904-24.98152l12.32904,24.98152l27.56888,4.00543l-19.95251,19.44427L297.47165,192.69249z
			 M248.55705,150.87181l12.12648,11.82437l-2.86102,16.6899l14.99103-7.88292l14.99106,7.88292l-2.86459-16.6899l12.12646-11.82437
			l-16.75742-2.43454l-7.49551-15.18651l-7.49551,15.18651L248.55705,150.87181z"/>
	</g>
	<g>
		<path fill="#FFFFFF" d="M148.2578,174.49568l-24.6581-12.96523l-24.6581,12.96523l4.70914-27.45871l-19.94541-19.44428
			l27.56533-4.00543l12.32905-24.98151l12.32904,24.98151l27.56888,4.00543l-19.95251,19.44428L148.2578,174.49568z
			 M99.34321,132.675l12.12646,11.82437l-2.86102,16.68988l14.99104-7.8829l14.99104,7.8829l-2.86458-16.68988l12.12646-11.82437
			l-16.75742-2.43454l-7.49551-15.18652l-7.49552,15.18652L99.34321,132.675z"/>
	</g>
	<g>
		<path fill="#FFFFFF" d="M64.55247,301.87335l-24.6581-12.96524l-24.6581,12.96524l4.70914-27.45871L0,254.97035l27.56532-4.00542
			l12.32905-24.98152l12.32905,24.98152l27.56887,4.00542l-19.95251,19.44429L64.55247,301.87335z M15.63788,260.05267
			l12.12647,11.82437l-2.86102,16.68988l14.99104-7.8829l14.99104,7.8829l-2.86458-16.68988l12.12647-11.82437l-16.75741-2.43454
			l-7.49552-15.18651l-7.49553,15.18651L15.63788,260.05267z"/>
	</g>
	<g>
		<path fill="#FFFFFF" d="M421.59735,401.39426c-13.93906,0-27.2739-4.51367-37.12222-12.33972
			c-12.82306,7.90427-29.58759,12.33972-47.23706,12.33972c-21.70468,0-41.62164-6.5679-54.84631-17.83075
			c-13.08609,6.31558-28.84125,9.74527-45.13307,9.74527c-43.70789,0-77.94418-23.53503-77.94418-53.58109
			c0-19.54025,14.47925-36.78458,38.31281-46.27393c-0.02132-0.4798-0.03198-0.95959-0.03198-1.43939
			c0-29.13977,37.6411-51.96397,85.69203-51.96397c28.02026,0,53.89029,8.03929,69.68457,21.32439
			c15.96484-8.20988,36.89828-12.83372,58.67047-12.83372c49.54721,0,88.3576,22.91304,88.3576,52.16655
			c0,15.36066-10.82568,29.52362-29.48807,39.23331c2.88943,5.4946,4.41769,11.47253,4.41769,17.53931
			C474.92963,381.69409,451.00366,401.39426,421.59735,401.39426z M386.34457,364.8194l5.76468,6.51102
			c6.57504,7.43155,17.59973,11.86703,29.4881,11.86703c19.3732,0,35.13547-11.5365,35.13547-25.71722
			c0-6.74915-3.61447-11.83856-6.64255-14.91638l-9.83054-9.98694l13.12161-4.91525
			c17.5322-6.57147,28.42184-16.8996,28.42184-26.95404c0-16.06793-28.81281-33.96976-70.1608-33.96976
			c-21.39545,0-41.51501,4.94727-55.20172,13.57654l-6.45419,4.07297l-5.13205-5.65097
			c-11.30548-12.44635-35.47311-20.4892-61.56708-20.4892c-39.77707,0-67.49522,17.79523-67.49522,33.76718
			c0,1.5318,0.25945,3.13113,0.76768,4.75177l2.75084,8.75366l-8.77144,2.67621
			c-20.06268,6.12723-33.02791,18.50247-33.02791,31.53168c0,19.18127,27.35918,35.38425,59.74738,35.38425
			c15.73384,0,30.65736-3.73532,42.02681-10.51645l6.45062-3.84906l5.00058,5.6012
			c9.27966,10.39209,27.09973,16.84982,46.50137,16.84982c16.50153,0,32.33133-4.82642,42.33957-12.91193L386.34457,364.8194z"/>
	</g>
</g>
</svg>
