<?xml version="1.0" encoding="utf-8"?>
<!-- Generator: Adobe Illustrator 18.0.0, SVG Export Plug-In . SVG Version: 6.00 Build 0)  -->
<!DOCTYPE svg PUBLIC "-//W3C//DTD SVG 1.1//EN" "http://www.w3.org/Graphics/SVG/1.1/DTD/svg11.dtd">
<svg version="1.1" id="Layer_1" xmlns="http://www.w3.org/2000/svg" xmlns:xlink="http://www.w3.org/1999/xlink" x="0px" y="0px"
	 viewBox="0 0 500 500" enable-background="new 0 0 500 500" xml:space="preserve">
<g>
	<g>
		<path fill="#FFFFFF" d="M384.93396,300.6156c-20.45212,0-40.02274-6.62439-54.48163-18.11014
			c-18.81949,11.60049-43.42361,18.11014-69.32651,18.11014c-31.8544,0-61.07993-9.63928-80.49405-26.17413
			c-19.19507,9.26889-42.31781,14.3024-66.23861,14.3024C50.2462,288.74387,0,254.20319,0,210.11192
			c0-28.67784,21.25018-53.9861,56.229-67.91295c-0.0313-0.70418-0.04694-1.41356-0.04694-2.11772
			c0-42.76117,55.24317-76.25864,125.76415-76.25864c41.12332,0,79.09096,11.7987,102.27107,31.29108
			c23.42526-12.04386,54.1478-18.82994,86.11176-18.82994C443.04074,76.28376,500,109.91163,500,152.83971
			c0,22.54898-15.88287,43.33493-43.27756,57.57997c4.24066,8.06401,6.48355,16.84262,6.48355,25.74641
			C463.20599,271.70303,428.09155,300.6156,384.93396,300.6156z M333.19598,246.93723l8.46042,9.55582
			c9.65491,10.90674,25.83508,17.41638,43.27756,17.41638c28.43268,0,51.56586-16.9313,51.56586-37.74333
			c0-9.91049-5.30472-17.37988-9.74878-21.89697l-14.42761-14.6571l19.25766-7.21379
			c25.73077-9.63927,41.71274-24.7971,41.71274-39.55852c0-23.57654-42.2865-49.84978-102.96478-49.84978
			c-31.41107,0-60.93912,7.26074-81.01569,19.92531l-9.47757,5.97758l-7.53195-8.29351
			c-16.59225-18.2666-52.06139-30.07052-90.35762-30.07052c-58.37802,0-99.05798,26.11675-99.05798,49.55246
			c0,2.25333,0.38078,4.60056,1.12667,6.97908l4.03722,12.84712l-12.87321,3.92769
			c-29.4446,8.99246-48.47274,27.15474-48.47274,46.27678c0,28.1458,40.15314,51.92577,87.687,51.92577
			c23.10188,0,45.00928-5.48206,61.67977-15.4343l9.46191-5.64897l7.34419,8.22049
			c13.61911,15.25694,39.77238,24.73451,68.24678,24.73451c24.21811,0,47.45041-7.0834,62.13879-18.94991L333.19598,246.93723z"/>
	</g>
	<g>
		<g>
			<rect x="140.85545" y="335.74609" fill="#FFFFFF" width="46.14551" height="2.13672"/>
		</g>
		<g>
			<rect x="162.86034" y="313.74121" fill="#FFFFFF" width="2.13672" height="46.14648"/>
		</g>
		<g>
			
				<rect x="162.86043" y="306.02188" transform="matrix(0.70665 0.70756 -0.70756 0.70665 270.08081 -23.95372)" fill="#FFFFFF" width="2.13651" height="15.43965"/>
		</g>
		<g>
			
				<rect x="156.20886" y="312.67343" transform="matrix(0.70714 0.70708 -0.70708 0.70714 269.84738 -24.02701)" fill="#FFFFFF" width="15.43965" height="2.13651"/>
		</g>
		<g>
			
				<rect x="156.20886" y="358.81894" transform="matrix(0.70714 0.70708 -0.70708 0.70714 302.47571 -10.51276)" fill="#FFFFFF" width="15.43965" height="2.13651"/>
		</g>
		<g>
			
				<rect x="162.86043" y="352.16739" transform="matrix(0.70665 0.70756 -0.70756 0.70665 302.73169 -10.41691)" fill="#FFFFFF" width="2.13651" height="15.43965"/>
		</g>
		<g>
			
				<rect x="140.85504" y="335.74619" transform="matrix(0.7071 0.70712 -0.70712 0.7071 286.18256 -17.26224)" fill="#FFFFFF" width="46.14631" height="2.13651"/>
		</g>
		<g>
			<rect x="146.54491" y="312.7793" fill="#FFFFFF" width="2.13672" height="15.44043"/>
		</g>
		<g>
			<rect x="139.89354" y="319.43066" fill="#FFFFFF" width="15.43945" height="2.13672"/>
		</g>
		<g>
			<rect x="172.52342" y="352.06152" fill="#FFFFFF" width="15.44043" height="2.13672"/>
		</g>
		<g>
			<rect x="179.17479" y="345.40918" fill="#FFFFFF" width="2.13672" height="15.44043"/>
		</g>
		<g>
			
				<rect x="169.51299" y="320.75546" transform="matrix(0.70711 0.70711 -0.70711 0.70711 283.42212 -23.91627)" fill="#FFFFFF" width="2.13513" height="18.81429"/>
		</g>
		<g>
			
				<rect x="133.13527" y="335.74689" transform="matrix(0.70711 0.70711 -0.70711 0.70711 279.4194 -0.94917)" fill="#FFFFFF" width="15.44034" height="2.13513"/>
		</g>
		<g>
			
				<rect x="139.78789" y="329.09427" transform="matrix(0.70711 0.70711 -0.70711 0.70711 279.4194 -0.94917)" fill="#FFFFFF" width="2.13513" height="15.44034"/>
		</g>
		<g>
			
				<rect x="185.93318" y="329.09464" transform="matrix(0.70756 0.70665 -0.70665 0.70756 292.6958 -33.64772)" fill="#FFFFFF" width="2.13651" height="15.43965"/>
		</g>
		<g>
			
				<rect x="179.28162" y="335.74619" transform="matrix(0.70708 0.70714 -0.70714 0.70708 292.95181 -33.57458)" fill="#FFFFFF" width="15.43965" height="2.13651"/>
		</g>
		<g>
			<rect x="162.86034" y="318" fill="#FFFFFF" width="2.13672" height="18.81445"/>
		</g>
		<g>
			
				<rect x="162.85994" y="313.7413" transform="matrix(0.70756 0.70665 -0.70665 0.70756 285.94833 -17.34302)" fill="#FFFFFF" width="2.13651" height="46.14631"/>
		</g>
		<g>
			<rect x="139.89354" y="352.06152" fill="#FFFFFF" width="15.43945" height="2.13672"/>
		</g>
		<g>
			<rect x="146.54491" y="345.40918" fill="#FFFFFF" width="2.13672" height="15.44043"/>
		</g>
		<g>
			<rect x="179.17479" y="312.7793" fill="#FFFFFF" width="2.13672" height="15.44043"/>
		</g>
		<g>
			<rect x="172.52342" y="319.43066" fill="#FFFFFF" width="15.44043" height="2.13672"/>
		</g>
		<g>
			
				<rect x="147.86885" y="329.09433" transform="matrix(0.70713 0.70708 -0.70708 0.70713 279.51273 -14.51327)" fill="#FFFFFF" width="18.81498" height="2.13651"/>
		</g>
		<g>
			<path fill="#FFFFFF" d="M168.26756,347.29004h-8.67773l-6.13672-6.13672v-8.67773l6.13672-6.13672h8.67773l6.13672,6.13672
				v8.67773L168.26756,347.29004z M160.47459,345.15332h6.9082l4.88477-4.88477v-6.9082l-4.88477-4.88477h-6.9082l-4.88477,4.88477
				v6.9082L160.47459,345.15332z"/>
		</g>
	</g>
	<g>
		<g>
			<rect x="250.99706" y="335.74609" fill="#FFFFFF" width="46.14551" height="2.13672"/>
		</g>
		<g>
			<rect x="273.00192" y="313.74121" fill="#FFFFFF" width="2.13672" height="46.14648"/>
		</g>
		<g>
			
				<rect x="273.00223" y="306.02222" transform="matrix(0.70711 0.70711 -0.70711 0.70711 302.12207 -101.9038)" fill="#FFFFFF" width="2.13513" height="15.43896"/>
		</g>
		<g>
			
				<rect x="266.35031" y="312.67413" transform="matrix(0.70711 0.70711 -0.70711 0.70711 302.12207 -101.9038)" fill="#FFFFFF" width="15.43896" height="2.13513"/>
		</g>
		<g>
			
				<rect x="266.35031" y="358.81964" transform="matrix(0.70711 0.70711 -0.70711 0.70711 334.75189 -88.38809)" fill="#FFFFFF" width="15.43896" height="2.13513"/>
		</g>
		<g>
			
				<rect x="273.00223" y="352.16772" transform="matrix(0.70711 0.70711 -0.70711 0.70711 334.75189 -88.38809)" fill="#FFFFFF" width="2.13513" height="15.43896"/>
		</g>
		<g>
			
				<rect x="250.99664" y="335.74619" transform="matrix(0.7071 0.70712 -0.70712 0.7071 318.44345 -95.14528)" fill="#FFFFFF" width="46.14631" height="2.13651"/>
		</g>
		<g>
			<rect x="256.68649" y="312.7793" fill="#FFFFFF" width="2.13672" height="15.44043"/>
		</g>
		<g>
			<rect x="250.03514" y="319.43066" fill="#FFFFFF" width="15.43945" height="2.13672"/>
		</g>
		<g>
			<rect x="282.66501" y="352.06152" fill="#FFFFFF" width="15.43945" height="2.13672"/>
		</g>
		<g>
			<rect x="289.31638" y="345.40918" fill="#FFFFFF" width="2.13672" height="15.44043"/>
		</g>
		<g>
			
				<rect x="279.65457" y="320.75546" transform="matrix(0.70711 0.70711 -0.70711 0.70711 315.68182 -101.79815)" fill="#FFFFFF" width="2.13513" height="18.81429"/>
		</g>
		<g>
			
				<rect x="243.27687" y="335.74689" transform="matrix(0.70711 0.70711 -0.70711 0.70711 311.67914 -78.83105)" fill="#FFFFFF" width="15.44034" height="2.13513"/>
		</g>
		<g>
			
				<rect x="249.92949" y="329.09427" transform="matrix(0.70711 0.70711 -0.70711 0.70711 311.67914 -78.83105)" fill="#FFFFFF" width="2.13513" height="15.44034"/>
		</g>
		<g>
			
				<rect x="296.07498" y="329.09427" transform="matrix(0.70711 0.70711 -0.70711 0.70711 325.19482 -111.46085)" fill="#FFFFFF" width="2.13513" height="15.44034"/>
		</g>
		<g>
			
				<rect x="289.42239" y="335.74689" transform="matrix(0.70711 0.70711 -0.70711 0.70711 325.19482 -111.46085)" fill="#FFFFFF" width="15.44034" height="2.13513"/>
		</g>
		<g>
			<rect x="273.00192" y="318" fill="#FFFFFF" width="2.13672" height="18.81445"/>
		</g>
		<g>
			
				<rect x="273.00156" y="313.7413" transform="matrix(0.70756 0.70665 -0.70665 0.70756 318.15775 -95.17454)" fill="#FFFFFF" width="2.13651" height="46.14631"/>
		</g>
		<g>
			<rect x="250.03514" y="352.06152" fill="#FFFFFF" width="15.43945" height="2.13672"/>
		</g>
		<g>
			<rect x="256.68649" y="345.40918" fill="#FFFFFF" width="2.13672" height="15.44043"/>
		</g>
		<g>
			<rect x="289.31638" y="312.7793" fill="#FFFFFF" width="2.13672" height="15.44043"/>
		</g>
		<g>
			<rect x="282.66501" y="319.43066" fill="#FFFFFF" width="15.43945" height="2.13672"/>
		</g>
		<g>
			
				<rect x="258.01047" y="329.09433" transform="matrix(0.70713 0.70708 -0.70708 0.70713 311.76962 -92.39229)" fill="#FFFFFF" width="18.81498" height="2.13651"/>
		</g>
		<g>
			<path fill="#FFFFFF" d="M278.40915,347.29004h-8.67773l-6.13672-6.13672v-8.67773l6.13672-6.13672h8.67773l6.13574,6.13672
				v8.67773L278.40915,347.29004z M270.61618,345.15332h6.9082l4.88379-4.88477v-6.9082l-4.88379-4.88477h-6.9082l-4.88477,4.88477
				v6.9082L270.61618,345.15332z"/>
		</g>
	</g>
	<g>
		<g>
			<rect x="195.92674" y="406.57715" fill="#FFFFFF" width="46.14551" height="2.13672"/>
		</g>
		<g>
			<rect x="217.93065" y="384.57324" fill="#FFFFFF" width="2.13672" height="46.14551"/>
		</g>
		<g>
			
				<rect x="217.93074" y="376.85294" transform="matrix(0.70665 0.70756 -0.70756 0.70665 336.35318 -42.14116)" fill="#FFFFFF" width="2.13651" height="15.43965"/>
		</g>
		<g>
			
				<rect x="211.27917" y="383.50449" transform="matrix(0.70714 0.70708 -0.70708 0.70714 336.05823 -42.22216)" fill="#FFFFFF" width="15.43965" height="2.13651"/>
		</g>
		<g>
			
				<rect x="211.27882" y="429.65118" transform="matrix(0.70711 0.70711 -0.70711 0.70711 368.70749 -28.70107)" fill="#FFFFFF" width="15.44034" height="2.13513"/>
		</g>
		<g>
			
				<rect x="217.93144" y="422.99857" transform="matrix(0.70711 0.70711 -0.70711 0.70711 368.70749 -28.70107)" fill="#FFFFFF" width="2.13513" height="15.44034"/>
		</g>
		<g>
			
				<rect x="195.92668" y="406.57843" transform="matrix(0.70711 0.70711 -0.70711 0.70711 352.39273 -35.45927)" fill="#FFFFFF" width="46.14562" height="2.13513"/>
		</g>
		<g>
			<rect x="201.6162" y="383.61035" fill="#FFFFFF" width="2.13672" height="15.44043"/>
		</g>
		<g>
			<rect x="194.96385" y="390.2627" fill="#FFFFFF" width="15.44043" height="2.13672"/>
		</g>
		<g>
			<rect x="227.59471" y="422.89258" fill="#FFFFFF" width="15.43945" height="2.13672"/>
		</g>
		<g>
			<rect x="234.24608" y="416.24121" fill="#FFFFFF" width="2.13672" height="15.43945"/>
		</g>
		<g>
			
				<rect x="224.58308" y="391.58615" transform="matrix(0.70665 0.70756 -0.70756 0.70665 349.92349 -42.03103)" fill="#FFFFFF" width="2.13651" height="18.81498"/>
		</g>
		<g>
			
				<rect x="188.20642" y="406.57724" transform="matrix(0.70708 0.70714 -0.70714 0.70708 345.65347 -19.13748)" fill="#FFFFFF" width="15.43965" height="2.13651"/>
		</g>
		<g>
			
				<rect x="194.85799" y="399.92569" transform="matrix(0.70756 0.70665 -0.70665 0.70756 345.35846 -19.24085)" fill="#FFFFFF" width="2.13651" height="15.43965"/>
		</g>
		<g>
			
				<rect x="241.00468" y="399.92532" transform="matrix(0.70711 0.70711 -0.70711 0.70711 359.15024 -51.77432)" fill="#FFFFFF" width="2.13513" height="15.44034"/>
		</g>
		<g>
			
				<rect x="234.35207" y="406.57794" transform="matrix(0.70711 0.70711 -0.70711 0.70711 359.15024 -51.77432)" fill="#FFFFFF" width="15.44034" height="2.13513"/>
		</g>
		<g>
			<rect x="217.93065" y="388.83105" fill="#FFFFFF" width="2.13672" height="18.81445"/>
		</g>
		<g>
			
				<rect x="217.93193" y="384.57318" transform="matrix(0.70711 0.70711 -0.70711 0.70711 352.39273 -35.45927)" fill="#FFFFFF" width="2.13513" height="46.14562"/>
		</g>
		<g>
			<rect x="194.96385" y="422.89258" fill="#FFFFFF" width="15.44043" height="2.13672"/>
		</g>
		<g>
			<rect x="201.6162" y="416.24121" fill="#FFFFFF" width="2.13672" height="15.43945"/>
		</g>
		<g>
			<rect x="234.24608" y="383.61035" fill="#FFFFFF" width="2.13672" height="15.44043"/>
		</g>
		<g>
			<rect x="227.59471" y="390.2627" fill="#FFFFFF" width="15.43945" height="2.13672"/>
		</g>
		<g>
			
				<rect x="202.94" y="399.92609" transform="matrix(0.70711 0.70711 -0.70711 0.70711 345.74039 -32.70378)" fill="#FFFFFF" width="18.81429" height="2.13513"/>
		</g>
		<g>
			<path fill="#FFFFFF" d="M223.33788,418.12109h-8.67773l-6.13672-6.13672v-8.67773l6.13672-6.13672h8.67773l6.13672,6.13672
				v8.67773L223.33788,418.12109z M215.54491,415.98438h6.9082l4.88477-4.88477v-6.9082l-4.88477-4.88477h-6.9082l-4.88477,4.88477
				v6.9082L215.54491,415.98438z"/>
		</g>
	</g>
	<g>
		<g>
			<rect x="306.06735" y="406.57715" fill="#FFFFFF" width="46.14648" height="2.13672"/>
		</g>
		<g>
			<rect x="328.07224" y="384.57324" fill="#FFFFFF" width="2.13672" height="46.14551"/>
		</g>
		<g>
			
				<rect x="328.07236" y="376.85294" transform="matrix(0.70665 0.70756 -0.70756 0.70665 368.66327 -120.07336)" fill="#FFFFFF" width="2.13651" height="15.43965"/>
		</g>
		<g>
			
				<rect x="321.42078" y="383.50449" transform="matrix(0.70714 0.70708 -0.70708 0.70714 368.31448 -120.10056)" fill="#FFFFFF" width="15.43965" height="2.13651"/>
		</g>
		<g>
			
				<rect x="321.42044" y="429.65118" transform="matrix(0.70711 0.70711 -0.70711 0.70711 400.96722 -106.58295)" fill="#FFFFFF" width="15.44034" height="2.13513"/>
		</g>
		<g>
			
				<rect x="328.07303" y="422.99857" transform="matrix(0.70711 0.70711 -0.70711 0.70711 400.96722 -106.58295)" fill="#FFFFFF" width="2.13513" height="15.44034"/>
		</g>
		<g>
			
				<rect x="306.06744" y="406.57773" transform="matrix(0.70712 0.7071 -0.7071 0.70712 384.6445 -113.34164)" fill="#FFFFFF" width="46.14631" height="2.13651"/>
		</g>
		<g>
			<rect x="311.75681" y="383.61035" fill="#FFFFFF" width="2.13672" height="15.44043"/>
		</g>
		<g>
			<rect x="305.10544" y="390.2627" fill="#FFFFFF" width="15.44043" height="2.13672"/>
		</g>
		<g>
			<rect x="337.73532" y="422.89258" fill="#FFFFFF" width="15.44043" height="2.13672"/>
		</g>
		<g>
			<rect x="344.38766" y="416.24121" fill="#FFFFFF" width="2.13672" height="15.43945"/>
		</g>
		<g>
			
				<rect x="334.72488" y="391.58652" transform="matrix(0.70711 0.70711 -0.70711 0.70711 381.89667 -119.9928)" fill="#FFFFFF" width="2.13513" height="18.81429"/>
		</g>
		<g>
			
				<rect x="298.34802" y="406.57724" transform="matrix(0.70708 0.70714 -0.70714 0.70708 377.91666 -97.02283)" fill="#FFFFFF" width="15.43965" height="2.13651"/>
		</g>
		<g>
			
				<rect x="304.9996" y="399.92569" transform="matrix(0.70756 0.70665 -0.70665 0.70756 377.56787 -97.07236)" fill="#FFFFFF" width="2.13651" height="15.43965"/>
		</g>
		<g>
			
				<rect x="351.14511" y="399.92569" transform="matrix(0.70756 0.70665 -0.70665 0.70756 391.0625 -129.68108)" fill="#FFFFFF" width="2.13651" height="15.43965"/>
		</g>
		<g>
			
				<rect x="344.49353" y="406.57724" transform="matrix(0.70708 0.70714 -0.70714 0.70708 391.43384 -129.6541)" fill="#FFFFFF" width="15.43965" height="2.13651"/>
		</g>
		<g>
			<rect x="328.07224" y="388.83105" fill="#FFFFFF" width="2.13672" height="18.81445"/>
		</g>
		<g>
			
				<rect x="328.07236" y="384.57285" transform="matrix(0.70665 0.70756 -0.70756 0.70665 384.98907 -113.30481)" fill="#FFFFFF" width="2.13651" height="46.14631"/>
		</g>
		<g>
			<rect x="305.10544" y="422.89258" fill="#FFFFFF" width="15.44043" height="2.13672"/>
		</g>
		<g>
			<rect x="311.75681" y="416.24121" fill="#FFFFFF" width="2.13672" height="15.43945"/>
		</g>
		<g>
			<rect x="344.38766" y="383.61035" fill="#FFFFFF" width="2.13672" height="15.44043"/>
		</g>
		<g>
			<rect x="337.73532" y="390.2627" fill="#FFFFFF" width="15.44043" height="2.13672"/>
		</g>
		<g>
			
				<rect x="313.0816" y="399.92609" transform="matrix(0.70711 0.70711 -0.70711 0.70711 378.00012 -110.58566)" fill="#FFFFFF" width="18.81429" height="2.13513"/>
		</g>
		<g>
			<path fill="#FFFFFF" d="M333.47946,418.12109h-8.67773l-6.13672-6.13672v-8.67773l6.13672-6.13672h8.67773l6.13672,6.13672
				v8.67773L333.47946,418.12109z M325.68649,415.98438h6.9082l4.88477-4.88477v-6.9082l-4.88477-4.88477h-6.9082l-4.88477,4.88477
				v6.9082L325.68649,415.98438z"/>
		</g>
	</g>
</g>
</svg>
