<?xml version="1.0" encoding="utf-8"?>
<!-- Generator: Adobe Illustrator 18.0.0, SVG Export Plug-In . SVG Version: 6.00 Build 0)  -->
<!DOCTYPE svg PUBLIC "-//W3C//DTD SVG 1.1//EN" "http://www.w3.org/Graphics/SVG/1.1/DTD/svg11.dtd">
<svg version="1.1" id="Layer_1" xmlns="http://www.w3.org/2000/svg" xmlns:xlink="http://www.w3.org/1999/xlink" x="0px" y="0px"
	 viewBox="0 0 500 500" enable-background="new 0 0 500 500" xml:space="preserve">
<g>
	<g>
		<path fill="#FFFFFF" d="M312.22379,296.31262c-4.39398,0-7.41818-1.56403-9.3439-3.13474
			c-6.70148-5.46234-6.31299-15.59326-6.246-16.73196l1.16211-21.69191l10.27496,0.54924l-1.1655,21.71872
			c-0.09375,1.94247,0.38852,6.50055,2.48502,8.18848c1.20569,0.97458,3.23856,1.08844,6.04507,0.33157
			c2.81659-0.75354,4.5246-1.87213,5.07721-3.32565c0.96786-2.53857-0.92102-6.75842-1.93243-8.29562l8.59372-5.65323
			c0.62628,0.95111,6.02832,9.53143,2.95389,17.60941c-1.23245,3.24188-4.32031,7.53876-12.02988,9.60513
			C315.91446,296.06479,313.96198,296.30927,312.22379,296.31262z"/>
	</g>
	<g>
		<path fill="#FFFFFF" d="M318.09805,295.48206l-2.65915-9.94003c2.81323-0.75354,4.52124-1.87213,5.07385-3.32565
			c0.96786-2.53857-0.92102-6.75842-1.93243-8.29562l-13.03458-20.01071l8.62051-5.61304l13.02118,19.9906
			c0.61288,0.93103,6.01492,9.51135,2.94049,17.58932C328.89548,289.1188,325.80762,293.41568,318.09805,295.48206z"/>
	</g>
	<g>
		<path fill="#FFFFFF" d="M355.21246,325.5835c-4.39398,0-7.41818-1.56403-9.3439-3.13474
			c-6.70151-5.46234-6.31299-15.59326-6.24603-16.73196l2.73285-50.87906l27.8107,42.70398
			c0.00668,0.01007,0.0134,0.02011,0.02344,0.03015c0.66647,1.01813,5.98477,9.54486,2.92709,17.57593
			c-1.23248,3.24188-4.32031,7.53876-12.02988,9.60513C358.90314,325.33566,356.95062,325.58014,355.21246,325.5835z
			 M350.9357,286.86826l-1.04156,19.42459c-0.09378,1.94247,0.38849,6.50055,2.48502,8.18848
			c1.20566,0.97122,3.23856,1.08511,6.04507,0.33157c2.76297-0.73682,4.45761-1.82861,5.0437-3.24191
			c0.0134-0.02679,0.02344-0.05359,0.03348-0.08371c0.18756-0.49234,0.26794-1.04492,0.26794-1.63101
			c0-2.44147-1.38654-5.42883-2.20035-6.668L350.9357,286.86826z"/>
	</g>
	<g>
		<path fill="#FFFFFF" d="M376.64651,277.77551c-4.39734,0-7.42154-1.56403-9.35062-3.13474
			c-6.69812-5.45898-6.30963-15.5899-6.24265-16.72861l1.68793-31.44107l10.27493,0.54926l-1.69128,31.46786
			c-0.09375,1.94247,0.38852,6.49719,2.48502,8.18848c1.20233,0.97458,3.23856,1.08511,6.04843,0.33154
			c2.8132-0.75354,4.52124-1.8721,5.07385-3.32562c0.96786-2.54193-0.92102-6.76175-1.93243-8.29898l8.59372-5.65324
			c0.62628,0.95114,6.02832,9.52812,2.95724,17.60942c-1.23581,3.24191-4.32367,7.54211-12.02988,9.60849
			C380.33719,277.53104,378.38467,277.77551,376.64651,277.77551z"/>
	</g>
	<g>
		<path fill="#FFFFFF" d="M382.52078,276.9483l-2.66586-9.94006c2.81656-0.75354,4.5246-1.8721,5.07721-3.32562
			c0.96786-2.54193-0.92102-6.76175-1.93243-8.29898l-16.95297-26.02898l8.62048-5.61305l16.93961,26.00888
			c0.61288,0.93105,6.01492,9.50803,2.94385,17.58932C393.31485,270.58173,390.22699,274.88193,382.52078,276.9483z"/>
	</g>
	<g>
		<path fill="#FFFFFF" d="M419.63519,307.04639c-4.39398,0-7.41821-1.564-9.34726-3.13474
			c-6.70151-5.45898-6.31299-15.5899-6.24603-16.72525l2.73621-50.87907l27.81403,42.70064
			c0.00336,0.01007,0.01004,0.01675,0.01675,0.02679c0.65305,0.99469,5.99149,9.53482,2.93042,17.57593
			c-1.23245,3.24191-4.32028,7.53876-12.02985,9.60513C423.32587,306.79855,421.37335,307.04639,419.63519,307.04639z
			 M415.35843,268.33115l-1.04492,19.4313c-0.09378,1.93912,0.39185,6.49384,2.48502,8.18176
			c1.20901,0.97125,3.24191,1.08511,6.04843,0.33157c2.70602-0.72342,4.39063-1.78506,5.00684-3.15482
			c0.02679-0.05695,0.05026-0.11389,0.07034-0.17081c0.18756-0.48898,0.26791-1.04492,0.26791-1.63101
			c0-2.43811-1.38651-5.42548-2.20032-6.66464L415.35843,268.33115z"/>
	</g>
	<g>
		<path fill="#FFFFFF" d="M438.16895,255.464c-4.39734,0-7.42154-1.56401-9.35062-3.13472
			c-6.70148-5.45898-6.31299-15.58994-6.246-16.72527l0.3483-6.49049l10.27493,0.55594l-0.35162,6.51059
			c-0.09378,1.93912,0.39182,6.49385,2.48834,8.18513c1.20233,0.97124,3.23856,1.0851,6.04843,0.33156
			c2.8132-0.75354,4.52124-1.87213,5.07382-3.32562c0.9679-2.54195-0.92099-6.76178-1.9324-8.299l8.59372-5.65323
			c0.62628,0.95113,6.02832,9.52809,2.95721,17.60941c-1.23581,3.2419-4.32364,7.5421-12.02985,9.60849
			C441.85962,255.21953,439.9071,255.464,438.16895,255.464z"/>
	</g>
	<g>
		<path fill="#FFFFFF" d="M444.04321,254.6368l-2.66586-9.94005c2.81656-0.75354,4.5246-1.87213,5.07718-3.32562
			c0.9679-2.54195-0.92099-6.76178-1.9324-8.299l-4.14951-6.36324l8.62051-5.61975l4.13611,6.3465
			c0.61288,0.93439,6.01492,9.51135,2.94382,17.59267C454.83725,248.2702,451.74942,252.5704,444.04321,254.6368z"/>
	</g>
	<g>
		<path fill="#FFFFFF" d="M481.15762,284.73489c-4.39734,0-7.42154-1.56403-9.35062-3.13474
			c-6.69815-5.45898-6.30966-15.58994-6.24268-16.72861l2.73285-50.87909l27.81403,42.70737
			c0.00336,0.00668,0.01004,0.0134,0.01675,0.02344c0.65308,0.99466,5.99149,9.53143,2.93378,17.57593
			c-1.23581,3.24188-4.32364,7.54208-12.02985,9.60846C484.8483,284.49042,482.89578,284.73489,481.15762,284.73489z
			 M476.8775,246.02298l-1.04156,19.42462c-0.09378,1.94244,0.38849,6.49719,2.48502,8.18848
			c1.2023,0.97458,3.24524,1.08844,6.04507,0.33154l0,0c2.81656-0.75354,4.5246-1.87213,5.07718-3.32562
			c0.18756-0.49231,0.26791-1.04825,0.26791-1.63101c0-2.44147-1.38651-5.42883-2.20032-6.668L476.8775,246.02298z"/>
	</g>
	<g>
		<path fill="#FFFFFF" d="M414.25323,238.59138c-13.13171,0-25.69742-4.25331-34.98441-11.62796
			c-12.08008,7.44833-27.8743,11.62796-44.50912,11.62796c-8.64063,0-17.04007-1.10519-24.96399-3.28543l4.54803-16.53101
			c6.44363,1.77165,13.31256,2.6692,20.41595,2.6692c15.55307,0,30.46649-4.54803,39.8941-12.16718l6.37329-5.15086l5.43219,6.13548
			c6.20584,7.00291,16.59464,11.18256,27.79395,11.18256c18.25577,0,33.10556-10.87108,33.10556-24.23387
			c0-6.36659-3.40265-11.1591-6.25607-14.0594l-9.26352-9.41089l12.36478-4.63176
			c16.52097-6.18909,26.7825-15.92149,26.7825-25.39601c0-15.14114-27.15091-32.01041-66.11401-32.01041
			c-20.16809,0-39.12384,4.66191-52.0144,12.79345l-6.08527,3.83804l-4.83606-5.32503
			c-10.65338-11.72845-33.42706-19.30739-58.01593-19.30739c-37.4828,0-63.6022,16.76879-63.6022,31.81616
			c0,1.45351,0.24113,2.95723,0.72005,4.47101l2.60558,8.25546l-8.27554,2.52521
			c-18.9055,5.77379-31.12292,17.43526-31.12292,29.71295c0,4.87624,1.86209,9.62857,5.53267,14.11633l-13.26901,10.85768
			c-6.15559-7.52536-9.41089-16.16261-9.41089-24.97401c0-18.41319,13.6441-34.66289,36.10298-43.6049
			c-0.0201-0.45212-0.03015-0.90759-0.03015-1.35973c0-27.45567,35.47002-48.96341,80.74945-48.96341
			c26.40405,0,50.78195,7.5756,65.66522,20.09108c15.03732-7.73301,34.76669-12.09015,55.28644-12.09015
			c46.68939,0,83.26126,21.59146,83.26126,49.15765c0,14.47469-10.20126,27.82408-27.78723,36.96704
			c2.71942,5.17767,4.15955,10.81415,4.15955,16.53102C464.50604,220.0275,441.96344,238.59138,414.25323,238.59138z"/>
	</g>
	<g>
		<path fill="#FFFFFF" d="M145.12862,384.17548c-4.39732,0-7.42154-1.564-9.3506-3.13474
			c-6.69814-5.45898-6.30965-15.5899-6.24266-16.72861l2.73283-50.87906l27.81403,42.70734
			c0.00336,0.00671,0.01006,0.0134,0.01675,0.02344c0.65306,0.99469,5.99149,9.53146,2.93378,17.57593
			c-1.23579,3.24191-4.32364,7.54211-12.02986,9.60849C148.81929,383.931,146.86679,384.17548,145.12862,384.17548z
			 M140.84851,345.46359l-1.04156,19.42459c-0.09377,1.94247,0.38849,6.49719,2.48502,8.18848
			c1.20232,0.97458,3.24524,1.08511,6.04507,0.33157l0,0c2.81656-0.75354,4.52458-1.87213,5.07718-3.32562
			c0.18756-0.49234,0.26793-1.04828,0.26793-1.63101c0-2.44147-1.38651-5.42883-2.20033-6.668L140.84851,345.46359z"/>
	</g>
	<g>
		<path fill="#FFFFFF" d="M188.11394,413.44635c-4.39398,0-7.41818-1.564-9.3439-3.1347
			c-6.70149-5.46234-6.313-15.59329-6.24602-16.73196l2.73285-50.87573l27.81403,42.70401
			c0.00334,0.01004,0.01004,0.01672,0.01674,0.02676c0.65308,0.99469,5.99149,9.53482,2.93044,17.57593
			c-1.23245,3.24191-4.3203,7.53876-12.02986,9.60513C191.80461,413.19852,189.85211,413.44302,188.11394,413.44635z
			 M183.83717,374.73447l-1.04155,19.42126c-0.09378,1.94244,0.38849,6.50052,2.485,8.18848
			c1.20232,0.97122,3.23856,1.08508,6.04507,0.33154c2.70605-0.72339,4.39063-1.78506,5.00687-3.15482
			c0.02679-0.05695,0.05023-0.11389,0.07033-0.17081c0.18755-0.48898,0.26793-1.04492,0.26793-1.63101
			c0-2.43811-1.38652-5.42548-2.20035-6.66464L183.83717,374.73447z"/>
	</g>
	<g>
		<path fill="#FFFFFF" d="M209.54799,365.63837c-4.39732,0-7.42154-1.564-9.3506-3.1347
			c-6.69814-5.45898-6.30965-15.58994-6.24266-16.72861l1.66113-30.93204l10.27495,0.54926l-1.66449,30.9588
			c-0.09378,1.94247,0.38849,6.49719,2.48502,8.18848c1.20232,0.97125,3.23854,1.08511,6.04842,0.33157
			c2.81322-0.75354,4.52124-1.87213,5.07384-3.32562c0.96788-2.54196-0.92099-6.76178-1.9324-8.29901l8.5937-5.65323
			c0.62628,0.95114,6.02834,9.52811,2.95723,17.60941c-1.23581,3.24191-4.32364,7.54211-12.02986,9.60849
			C213.23866,365.39389,211.28616,365.63837,209.54799,365.63837z"/>
	</g>
	<g>
		<path fill="#FFFFFF" d="M215.42226,364.81116l-2.66585-9.94003c2.81656-0.75354,4.52458-1.87213,5.07718-3.32562
			c0.96788-2.54196-0.92099-6.76178-1.9324-8.29901l-17.00659-26.11606l8.62051-5.61304l16.99318,26.09598
			c0.61288,0.93103,6.01494,9.508,2.94383,17.58929C226.21631,358.44458,223.12848,362.74478,215.42226,364.81116z"/>
	</g>
	<g>
		<path fill="#FFFFFF" d="M252.54001,394.90927c-4.39732,0-7.42154-1.56403-9.3506-3.13474
			c-6.69815-5.45898-6.30965-15.58994-6.24268-16.72861l2.73285-50.87909l27.81404,42.70734
			c0.00333,0.00671,0.01004,0.0134,0.01672,0.02347c0.65308,0.99466,5.99149,9.53143,2.93381,17.5759
			c-1.23581,3.24191-4.32367,7.54211-12.02988,9.60849C256.23068,394.66476,254.27818,394.90927,252.54001,394.90927z
			 M248.2599,356.19736l-1.04156,19.42459c-0.09378,1.94247,0.38849,6.49722,2.48502,8.18848
			c1.20232,0.97125,3.24524,1.08511,6.04506,0.33157l0,0c2.81659-0.75354,4.5246-1.87213,5.07721-3.32562
			c0.18753-0.49231,0.26791-1.04828,0.26791-1.63101c0-2.44147-1.38651-5.42883-2.20035-6.668L248.2599,356.19736z"/>
	</g>
	<g>
		<path fill="#FFFFFF" d="M271.06708,343.33023c-4.39398,0-7.41821-1.56403-9.3439-3.13474
			c-6.70151-5.46234-6.31302-15.59326-6.24603-16.73196l0.33156-6.23932l10.27495,0.54926l-0.3349,6.26611
			c-0.09378,1.94244,0.38849,6.50055,2.48502,8.18848c1.2023,0.97122,3.2352,1.08508,6.04507,0.33154
			c2.81656-0.75354,4.52457-1.87213,5.07718-3.32562c0.9679-2.53857-0.92435-6.76178-1.9324-8.29898l8.59372-5.65323
			c0.62625,0.95111,6.02832,9.53143,2.95386,17.61276c-1.23245,3.24188-4.32028,7.53876-12.02985,9.60513
			C274.75775,343.0824,272.80524,343.32687,271.06708,343.33023z"/>
	</g>
	<g>
		<path fill="#FFFFFF" d="M276.94135,342.49966l-2.65918-9.94006c2.81323-0.75354,4.52124-1.87213,5.07385-3.32562
			c0.9679-2.53857-0.92435-6.76178-1.9324-8.29898l-4.96332-7.61914l8.62048-5.61304l4.94992,7.59903
			c0.61288,0.93103,6.01495,9.51135,2.94049,17.59268C287.73874,336.13641,284.65091,340.43329,276.94135,342.49966z"/>
	</g>
	<g>
		<path fill="#FFFFFF" d="M314.05908,372.59775c-4.39734,0-7.42154-1.56403-9.35059-3.13474
			c-6.69815-5.45898-6.30966-15.5899-6.24268-16.72861l2.73285-50.87906l27.81403,42.70734
			c0.00333,0.00668,0.01004,0.0134,0.01672,0.02344c0.65308,0.99469,5.99149,9.53146,2.93381,17.57593
			c-1.23581,3.24188-4.32367,7.54211-12.02988,9.60849C317.74976,372.35327,315.79724,372.59775,314.05908,372.59775z
			 M309.77896,333.88583l-1.04153,19.42462c-0.09378,1.94244,0.38849,6.49719,2.48499,8.18848
			c1.20569,0.97458,3.24527,1.08508,6.04507,0.33154l0,0c2.81659-0.75354,4.5246-1.87213,5.07721-3.32562
			c0.18753-0.49231,0.26791-1.04825,0.26791-1.63098c0-2.44147-1.38651-5.42886-2.20035-6.668L309.77896,333.88583z"/>
	</g>
	<g>
		<path fill="#FFFFFF" d="M247.15471,326.45425c-13.13171,0-25.69742-4.25333-34.98439-11.62796
			c-12.08011,7.44833-27.87431,11.62796-44.50916,11.62796c-20.45277,0-39.21761-6.18909-51.68285-16.80563
			c-12.33128,5.95465-27.1777,9.18649-42.52985,9.18649C32.2616,318.83511,0,296.65756,0,268.34454
			c0-18.41319,13.64411-34.66289,36.10298-43.6049c-0.0201-0.45213-0.03014-0.90425-0.03014-1.35638
			c0-27.45901,35.47001-48.96675,80.74944-48.96675c26.40407,0,50.78195,7.57559,65.66522,20.09442
			c15.04402-7.73636,34.77005-12.09349,55.28645-12.09349c46.68939,0,83.26123,21.59146,83.26123,49.15765
			c0,14.47469-10.20126,27.82072-27.78723,36.97038c2.72281,5.17767,4.1629,10.81082,4.1629,16.52768
			C297.41086,307.89035,274.86493,326.45425,247.15471,326.45425z M213.92857,291.98898l5.43219,6.1355
			c6.20583,7.0029,16.59465,11.18253,27.79395,11.18253c18.25578,0,33.1089-10.87106,33.1089-24.23386
			c0-6.35989-3.40601-11.15576-6.2594-14.05606l-9.26355-9.41089l12.36478-4.63177
			c16.52097-6.19241,26.78253-15.92482,26.78253-25.39934c0-15.14114-27.15094-32.01042-66.11401-32.01042
			c-20.16141,0-39.12048,4.66191-52.01776,12.79346l-6.08191,3.83803l-4.83606-5.32501
			c-10.6534-11.72845-33.42708-19.3074-58.01595-19.3074c-37.4828,0-63.6022,16.7688-63.6022,31.81952
			c0,1.44345,0.24448,2.95053,0.7234,4.47771l2.59218,8.24876l-8.26551,2.52185
			c-18.9055,5.7738-31.12291,17.43526-31.12291,29.71297c0,18.07492,25.78115,33.34332,56.30122,33.34332
			c14.82634,0,28.88908-3.51987,39.60276-9.90988l6.07521-3.62704l4.71214,5.27814
			c8.75113,9.79266,25.54001,15.87793,43.82259,15.87793c15.55309,0,30.46649-4.54803,39.89413-12.16718L213.92857,291.98898z"/>
	</g>
</g>
</svg>
